<svg width="557" height="1402" xmlns="http://www.w3.org/2000/svg" xmlns:xlink="http://www.w3.org/1999/xlink" overflow="hidden"><defs><clipPath id="clip0"><rect x="0" y="0" width="557" height="1402"/></clipPath></defs><g clip-path="url(#clip0)"><rect x="0" y="0" width="557" height="1401.91" fill="#FFFFFF"/><path d="M41.2092 101.154 108.429 101.154 108.429 140.096 41.2092 140.096Z" fill="#FFD966" fill-rule="evenodd"/><path d="M108.429 101.154 175.649 101.154 175.649 140.096 108.429 140.096Z" fill="#FFF2CC" fill-rule="evenodd"/><path d="M175.649 101.154 242.87 101.154 242.87 140.096 175.649 140.096Z" fill="#FFF2CC" fill-rule="evenodd"/><path d="M242.87 101.154 310.09 101.154 310.09 140.096 242.87 140.096Z" fill="#FFF2CC" fill-rule="evenodd"/><path d="M310.09 101.154 425.324 101.154 425.324 451.637 310.09 451.637Z" fill="#FFF2CC" fill-rule="evenodd"/><path d="M41.2092 140.096 108.429 140.096 108.429 179.039 41.2092 179.039Z" fill="#FFD966" fill-rule="evenodd"/><path d="M108.429 140.096 175.649 140.096 175.649 179.039 108.429 179.039Z" fill="#FFF2CC" fill-rule="evenodd"/><path d="M175.649 140.096 242.87 140.096 242.87 179.039 175.649 179.039Z" fill="#FFF2CC" fill-rule="evenodd"/><path d="M242.87 140.096 310.09 140.096 310.09 179.039 242.87 179.039Z" fill="#FFF2CC" fill-rule="evenodd"/><path d="M41.2092 179.039 108.429 179.039 108.429 217.982 41.2092 217.982Z" fill="#FFD966" fill-rule="evenodd"/><path d="M108.429 179.039 175.649 179.039 175.649 217.982 108.429 217.982Z" fill="#FFF2CC" fill-rule="evenodd"/><path d="M175.649 179.039 242.87 179.039 242.87 217.982 175.649 217.982Z" fill="#FFF2CC" fill-rule="evenodd"/><path d="M242.87 179.039 310.09 179.039 310.09 217.982 242.87 217.982Z" fill="#FFF2CC" fill-rule="evenodd"/><path d="M41.2092 217.982 108.429 217.982 108.429 256.924 41.2092 256.924Z" fill="#FFD966" fill-rule="evenodd"/><path d="M108.429 217.982 175.649 217.982 175.649 256.924 108.429 256.924Z" fill="#FFF2CC" fill-rule="evenodd"/><path d="M175.649 217.982 242.87 217.982 242.87 256.924 175.649 256.924Z" fill="#FFF2CC" fill-rule="evenodd"/><path d="M242.87 217.982 310.09 217.982 310.09 256.924 242.87 256.924Z" fill="#FFF2CC" fill-rule="evenodd"/><path d="M41.2092 256.924 108.429 256.924 108.429 295.867 41.2092 295.867Z" fill="#FFF2CC" fill-rule="evenodd"/><path d="M108.429 256.924 175.649 256.924 175.649 295.867 108.429 295.867Z" fill="#FFF2CC" fill-rule="evenodd"/><path d="M175.649 256.924 242.87 256.924 242.87 295.867 175.649 295.867Z" fill="#FFF2CC" fill-rule="evenodd"/><path d="M242.87 256.924 310.09 256.924 310.09 295.867 242.87 295.867Z" fill="#FFF2CC" fill-rule="evenodd"/><path d="M41.2092 295.867 108.429 295.867 108.429 334.809 41.2092 334.809Z" fill="#FFF2CC" fill-rule="evenodd"/><path d="M108.429 295.867 175.649 295.867 175.649 334.809 108.429 334.809Z" fill="#FFF2CC" fill-rule="evenodd"/><path d="M175.649 295.867 242.87 295.867 242.87 334.809 175.649 334.809Z" fill="#FFF2CC" fill-rule="evenodd"/><path d="M242.87 295.867 310.09 295.867 310.09 334.809 242.87 334.809Z" fill="#FFF2CC" fill-rule="evenodd"/><path d="M41.2092 334.809 108.429 334.809 108.429 373.752 41.2092 373.752Z" fill="#FFF2CC" fill-rule="evenodd"/><path d="M108.429 334.809 175.649 334.809 175.649 373.752 108.429 373.752Z" fill="#FFF2CC" fill-rule="evenodd"/><path d="M175.649 334.809 242.87 334.809 242.87 373.752 175.649 373.752Z" fill="#FFF2CC" fill-rule="evenodd"/><path d="M242.87 334.809 310.09 334.809 310.09 373.752 242.87 373.752Z" fill="#FFF2CC" fill-rule="evenodd"/><path d="M41.2092 373.752 108.429 373.752 108.429 412.695 41.2092 412.695Z" fill="#FFF2CC" fill-rule="evenodd"/><path d="M108.429 373.752 175.649 373.752 175.649 412.695 108.429 412.695Z" fill="#FFF2CC" fill-rule="evenodd"/><path d="M175.649 373.752 242.87 373.752 242.87 412.695 175.649 412.695Z" fill="#FFF2CC" fill-rule="evenodd"/><path d="M242.87 373.752 310.09 373.752 310.09 412.695 242.87 412.695Z" fill="#FFF2CC" fill-rule="evenodd"/><path d="M41.2092 412.695 108.429 412.695 108.429 451.637 41.2092 451.637Z" fill="#FFF2CC" fill-rule="evenodd"/><path d="M108.429 412.695 175.649 412.695 175.649 451.637 108.429 451.637Z" fill="#FFF2CC" fill-rule="evenodd"/><path d="M175.649 412.695 242.87 412.695 242.87 451.637 175.649 451.637Z" fill="#FFF2CC" fill-rule="evenodd"/><path d="M242.87 412.695 310.09 412.695 310.09 451.637 242.87 451.637Z" fill="#FFF2CC" fill-rule="evenodd"/><path d="M108.429 100.487 108.429 452.304" stroke="#000000" stroke-width="1.33373" stroke-linejoin="round" stroke-miterlimit="10" fill="none" fill-rule="evenodd"/><path d="M175.649 100.487 175.649 452.304" stroke="#000000" stroke-width="1.33373" stroke-linejoin="round" stroke-miterlimit="10" fill="none" fill-rule="evenodd"/><path d="M242.87 100.487 242.87 452.304" stroke="#000000" stroke-width="1.33373" stroke-linejoin="round" stroke-miterlimit="10" fill="none" fill-rule="evenodd"/><path d="M310.09 100.487 310.09 452.304" stroke="#000000" stroke-width="1.33373" stroke-linejoin="round" stroke-miterlimit="10" fill="none" fill-rule="evenodd"/><path d="M40.5423 140.096 310.756 140.096" stroke="#000000" stroke-width="1.33373" stroke-linejoin="round" stroke-miterlimit="10" fill="none" fill-rule="evenodd"/><path d="M40.5423 179.039 310.756 179.039" stroke="#000000" stroke-width="1.33373" stroke-linejoin="round" stroke-miterlimit="10" fill="none" fill-rule="evenodd"/><path d="M40.5423 217.982 310.756 217.982" stroke="#000000" stroke-width="1.33373" stroke-linejoin="round" stroke-miterlimit="10" fill="none" fill-rule="evenodd"/><path d="M40.5423 256.924 310.756 256.924" stroke="#000000" stroke-width="1.33373" stroke-linejoin="round" stroke-miterlimit="10" fill="none" fill-rule="evenodd"/><path d="M40.5423 295.867 310.756 295.867" stroke="#000000" stroke-width="1.33373" stroke-linejoin="round" stroke-miterlimit="10" fill="none" fill-rule="evenodd"/><path d="M40.5423 334.809 310.756 334.809" stroke="#000000" stroke-width="1.33373" stroke-linejoin="round" stroke-miterlimit="10" fill="none" fill-rule="evenodd"/><path d="M40.5423 373.752 310.756 373.752" stroke="#000000" stroke-width="1.33373" stroke-linejoin="round" stroke-miterlimit="10" fill="none" fill-rule="evenodd"/><path d="M40.5423 412.695 310.756 412.695" stroke="#000000" stroke-width="1.33373" stroke-linejoin="round" stroke-miterlimit="10" fill="none" fill-rule="evenodd"/><path d="M41.2092 100.487 41.2092 452.304" stroke="#000000" stroke-width="1.33373" stroke-linejoin="round" stroke-miterlimit="10" fill="none" fill-rule="evenodd"/><path d="M425.324 100.487 425.324 452.304" stroke="#000000" stroke-width="1.33373" stroke-linejoin="round" stroke-miterlimit="10" fill="none" fill-rule="evenodd"/><path d="M40.5423 101.154 425.991 101.154" stroke="#000000" stroke-width="1.33373" stroke-linejoin="round" stroke-miterlimit="10" fill="none" fill-rule="evenodd"/><path d="M40.5423 451.637 425.991 451.637" stroke="#000000" stroke-width="1.33373" stroke-linejoin="round" stroke-miterlimit="10" fill="none" fill-rule="evenodd"/><text font-family="Calibri,Calibri_MSFontService,sans-serif" font-weight="400" font-size="20" transform="matrix(1 0 0 0.999939 352.036 271)">2KB</text><text font-family="DengXian,DengXian_MSFontService,sans-serif" font-weight="400" font-size="20" transform="matrix(1 0 0 0.999939 327.695 295)">对齐数据</text><text font-family="DengXian,DengXian_MSFontService,sans-serif" font-weight="400" font-size="13" transform="matrix(1 0 0 0.999939 253.056 125)">数据块</text><text font-family="Calibri,Calibri_MSFontService,sans-serif" font-weight="400" font-size="13" transform="matrix(1 0 0 0.999939 293.068 125)">3</text><text font-family="DengXian,DengXian_MSFontService,sans-serif" font-weight="400" font-size="13" transform="matrix(1 0 0 0.999939 185.836 125)">数据块</text><text font-family="Calibri,Calibri_MSFontService,sans-serif" font-weight="400" font-size="13" transform="matrix(1 0 0 0.999939 225.848 125)">2</text><text font-family="DengXian,DengXian_MSFontService,sans-serif" font-weight="400" font-size="13" transform="matrix(1 0 0 0.999939 118.616 125)">数据块</text><text font-family="Calibri,Calibri_MSFontService,sans-serif" font-weight="400" font-size="13" transform="matrix(1 0 0 0.999939 158.628 125)">1</text><text font-family="DengXian,DengXian_MSFontService,sans-serif" font-weight="400" font-size="13" transform="matrix(1 0 0 0.999939 51.3955 125)">数据块</text><text font-family="Calibri,Calibri_MSFontService,sans-serif" font-weight="400" font-size="13" transform="matrix(1 0 0 0.999939 91.4075 125)">0</text><text font-family="Microsoft YaHei,Microsoft YaHei_MSFontService,sans-serif" font-weight="400" font-size="19" transform="matrix(1 0 0 0.999939 39.3827 41)">映射到一个流式处理器簇一次读取或存储的数据块</text><text font-family="Times New Roman,Times New Roman_MSFontService,sans-serif" font-weight="400" font-size="20" transform="matrix(1 0 0 0.999939 39.3827 65)">(</text><text font-family="Times New Roman,Times New Roman_MSFontService,sans-serif" font-weight="400" font-size="20" transform="matrix(1 0 0 0.999939 46.0514 65)">FP32/</text><text font-family="Times New Roman,Times New Roman_MSFontService,sans-serif" font-weight="400" font-size="20" transform="matrix(1 0 0 0.999939 93.899 65)">int/</text><text font-family="Times New Roman,Times New Roman_MSFontService,sans-serif" font-weight="400" font-size="20" transform="matrix(1 0 0 0.999939 120.407 65)">uint</text><text font-family="Times New Roman,Times New Roman_MSFontService,sans-serif" font-weight="400" font-size="20" transform="matrix(1 0 0 0.999939 156.418 65)">Burst 1</text><text font-family="Times New Roman,Times New Roman_MSFontService,sans-serif" font-weight="400" font-size="20" transform="matrix(1 0 0 0.999939 214.769 65)">)</text><path d="M38.5 83.828 81.757 83.8281 81.757 85.1618 38.5 85.1617ZM80.4232 80.494 88.4256 84.4949 80.4232 88.4959Z" fill="#4472C4"/><text font-family="Times New Roman,Times New Roman_MSFontService,sans-serif" font-weight="400" font-size="13" transform="matrix(1 0 0 0.999939 93.0715 90)">W</text><path d="M25.1669 98.494 25.167 121.639 23.8333 121.639 23.8332 98.494ZM28.5013 120.306 24.5001 128.307 20.4989 120.306Z" fill="#4472C4"/><path d="M451.282 126.507 499.296 126.507 499.296 155.314 451.282 155.314Z" fill="#FFD966" fill-rule="evenodd"/><path d="M451.282 125.84 451.282 155.981" stroke="#000000" stroke-width="1.33373" stroke-linejoin="round" stroke-miterlimit="10" fill="none" fill-rule="evenodd"/><path d="M499.296 125.84 499.296 155.981" stroke="#000000" stroke-width="1.33373" stroke-linejoin="round" stroke-miterlimit="10" fill="none" fill-rule="evenodd"/><path d="M450.615 126.507 499.963 126.507" stroke="#000000" stroke-width="1.33373" stroke-linejoin="round" stroke-miterlimit="10" fill="none" fill-rule="evenodd"/><path d="M450.615 155.314 499.963 155.314" stroke="#000000" stroke-width="1.33373" stroke-linejoin="round" stroke-miterlimit="10" fill="none" fill-rule="evenodd"/><text font-family="Times New Roman,Times New Roman_MSFontService,sans-serif" font-weight="400" font-size="16" transform="matrix(1 0 0 0.999939 452.694 117)">Burst1</text><text font-family="Microsoft YaHei,Microsoft YaHei_MSFontService,sans-serif" font-weight="400" font-size="16" transform="matrix(1 0 0 0.999939 499.375 117)">数据</text><path d="M108.681 558.17 233.518 558.17 233.518 582.175 108.681 582.175Z" fill="#FFD966" fill-rule="evenodd"/><path d="M233.518 558.17 357.754 558.17 357.754 582.175 233.518 582.175Z" fill="#FFF2CC" fill-rule="evenodd"/><path d="M108.681 582.175 233.518 582.175 233.518 606.181 108.681 606.181Z" fill="#FFF2CC" fill-rule="evenodd"/><path d="M233.518 582.175 357.754 582.175 357.754 606.181 233.518 606.181Z" fill="#FFF2CC" fill-rule="evenodd"/><path d="M108.681 606.181 233.518 606.181 233.518 630.187 108.681 630.187Z" fill="#FFF2CC" fill-rule="evenodd"/><path d="M233.518 606.181 357.754 606.181 357.754 630.187 233.518 630.187Z" fill="#FFF2CC" fill-rule="evenodd"/><path d="M108.681 630.187 233.518 630.187 233.518 654.193 108.681 654.193Z" fill="#FFF2CC" fill-rule="evenodd"/><path d="M233.518 630.187 357.754 630.187 357.754 654.193 233.518 654.193Z" fill="#FFF2CC" fill-rule="evenodd"/><path d="M233.518 557.503 233.518 654.859" stroke="#000000" stroke-width="1.33373" stroke-linejoin="round" stroke-miterlimit="10" fill="none" fill-rule="evenodd"/><path d="M108.014 582.175 358.421 582.175" stroke="#000000" stroke-width="1.33373" stroke-linecap="square" stroke-linejoin="round" stroke-miterlimit="10" stroke-dasharray="4.0012 1.33373" fill="none" fill-rule="evenodd"/><path d="M108.014 606.181 358.421 606.181" stroke="#000000" stroke-width="1.33373" stroke-linecap="square" stroke-linejoin="round" stroke-miterlimit="10" stroke-dasharray="4.0012 1.33373" fill="none" fill-rule="evenodd"/><path d="M108.014 630.187 358.421 630.187" stroke="#000000" stroke-width="1.33373" stroke-linecap="square" stroke-linejoin="round" stroke-miterlimit="10" stroke-dasharray="4.0012 1.33373" fill="none" fill-rule="evenodd"/><path d="M108.681 557.503 108.681 654.859" stroke="#000000" stroke-width="1.33373" stroke-linejoin="round" stroke-miterlimit="10" fill="none" fill-rule="evenodd"/><path d="M357.754 557.503 357.754 654.859" stroke="#000000" stroke-width="1.33373" stroke-linejoin="round" stroke-miterlimit="10" fill="none" fill-rule="evenodd"/><path d="M108.014 558.17 358.421 558.17" stroke="#000000" stroke-width="1.33373" stroke-linejoin="round" stroke-miterlimit="10" fill="none" fill-rule="evenodd"/><path d="M108.014 654.193 358.421 654.193" stroke="#000000" stroke-width="1.33373" stroke-linejoin="round" stroke-miterlimit="10" fill="none" fill-rule="evenodd"/><text font-family="DengXian,DengXian_MSFontService,sans-serif" font-weight="400" font-size="12" transform="matrix(1 0 0 0.999939 243.121 574)">数据块</text><text font-family="Calibri,Calibri_MSFontService,sans-serif" font-weight="400" font-size="12" transform="matrix(1 0 0 0.999939 279.132 574)">1</text><text font-family="DengXian,DengXian_MSFontService,sans-serif" font-weight="400" font-size="12" transform="matrix(1 0 0 0.999939 287.801 574)">数据子块</text><text font-family="Calibri,Calibri_MSFontService,sans-serif" font-weight="400" font-size="12" transform="matrix(1 0 0 0.999939 335.816 574)">0</text><text font-family="DengXian,DengXian_MSFontService,sans-serif" font-weight="400" font-size="12" transform="matrix(1 0 0 0.999939 118.284 574)">数据块</text><text font-family="Calibri,Calibri_MSFontService,sans-serif" font-weight="400" font-size="12" transform="matrix(1 0 0 0.999939 154.295 574)">0</text><text font-family="DengXian,DengXian_MSFontService,sans-serif" font-weight="400" font-size="12" transform="matrix(1 0 0 0.999939 162.964 574)">数据子块</text><text font-family="Calibri,Calibri_MSFontService,sans-serif" font-weight="400" font-size="12" transform="matrix(1 0 0 0.999939 210.978 574)">0</text><text font-family="DengXian,DengXian_MSFontService,sans-serif" font-weight="400" font-size="12" transform="matrix(1 0 0 0.999939 243.121 598)">数据块</text><text font-family="Calibri,Calibri_MSFontService,sans-serif" font-weight="400" font-size="12" transform="matrix(1 0 0 0.999939 279.132 598)">1</text><text font-family="DengXian,DengXian_MSFontService,sans-serif" font-weight="400" font-size="12" transform="matrix(1 0 0 0.999939 287.801 598)">数据子块</text><text font-family="Calibri,Calibri_MSFontService,sans-serif" font-weight="400" font-size="12" transform="matrix(1 0 0 0.999939 335.816 598)">1</text><text font-family="DengXian,DengXian_MSFontService,sans-serif" font-weight="400" font-size="12" transform="matrix(1 0 0 0.999939 118.284 598)">数据块</text><text font-family="Calibri,Calibri_MSFontService,sans-serif" font-weight="400" font-size="12" transform="matrix(1 0 0 0.999939 154.295 598)">0</text><text font-family="DengXian,DengXian_MSFontService,sans-serif" font-weight="400" font-size="12" transform="matrix(1 0 0 0.999939 162.964 598)">数据子块</text><text font-family="Calibri,Calibri_MSFontService,sans-serif" font-weight="400" font-size="12" transform="matrix(1 0 0 0.999939 210.978 598)">1</text><text font-family="DengXian,DengXian_MSFontService,sans-serif" font-weight="400" font-size="12" transform="matrix(1 0 0 0.999939 243.121 622)">数据块</text><text font-family="Calibri,Calibri_MSFontService,sans-serif" font-weight="400" font-size="12" transform="matrix(1 0 0 0.999939 279.132 622)">1</text><text font-family="DengXian,DengXian_MSFontService,sans-serif" font-weight="400" font-size="12" transform="matrix(1 0 0 0.999939 287.801 622)">数据子块</text><text font-family="Calibri,Calibri_MSFontService,sans-serif" font-weight="400" font-size="12" transform="matrix(1 0 0 0.999939 335.816 622)">2</text><text font-family="DengXian,DengXian_MSFontService,sans-serif" font-weight="400" font-size="12" transform="matrix(1 0 0 0.999939 118.284 622)">数据块</text><text font-family="Calibri,Calibri_MSFontService,sans-serif" font-weight="400" font-size="12" transform="matrix(1 0 0 0.999939 154.295 622)">0</text><text font-family="DengXian,DengXian_MSFontService,sans-serif" font-weight="400" font-size="12" transform="matrix(1 0 0 0.999939 162.964 622)">数据子块</text><text font-family="Calibri,Calibri_MSFontService,sans-serif" font-weight="400" font-size="12" transform="matrix(1 0 0 0.999939 210.978 622)">2</text><text font-family="DengXian,DengXian_MSFontService,sans-serif" font-weight="400" font-size="12" transform="matrix(1 0 0 0.999939 243.121 646)">数据块</text><text font-family="Calibri,Calibri_MSFontService,sans-serif" font-weight="400" font-size="12" transform="matrix(1 0 0 0.999939 279.132 646)">1</text><text font-family="DengXian,DengXian_MSFontService,sans-serif" font-weight="400" font-size="12" transform="matrix(1 0 0 0.999939 287.801 646)">数据子块</text><text font-family="Calibri,Calibri_MSFontService,sans-serif" font-weight="400" font-size="12" transform="matrix(1 0 0 0.999939 335.816 646)">3</text><text font-family="DengXian,DengXian_MSFontService,sans-serif" font-weight="400" font-size="12" transform="matrix(1 0 0 0.999939 118.284 646)">数据块</text><text font-family="Calibri,Calibri_MSFontService,sans-serif" font-weight="400" font-size="12" transform="matrix(1 0 0 0.999939 154.295 646)">0</text><text font-family="DengXian,DengXian_MSFontService,sans-serif" font-weight="400" font-size="12" transform="matrix(1 0 0 0.999939 162.964 646)">数据子块</text><text font-family="Calibri,Calibri_MSFontService,sans-serif" font-weight="400" font-size="12" transform="matrix(1 0 0 0.999939 210.978 646)">3</text><text font-family="Microsoft YaHei,Microsoft YaHei_MSFontService,sans-serif" font-weight="400" font-size="19" transform="matrix(1 0 0 0.999939 97.8927 478)">映射到一个线程束一次读取或存</text><text font-family="Microsoft YaHei,Microsoft YaHei_MSFontService,sans-serif" font-weight="400" font-size="19" transform="matrix(1 0 0 0.999939 97.8927 500)">储的数据子</text><text font-family="Microsoft YaHei,Microsoft YaHei_MSFontService,sans-serif" font-weight="400" font-size="19" transform="matrix(1 0 0 0.999939 191.254 500)">块</text><text font-family="Times New Roman,Times New Roman_MSFontService,sans-serif" font-weight="400" font-size="20" transform="matrix(1 0 0 0.999939 97.8927 524)">(</text><text font-family="Times New Roman,Times New Roman_MSFontService,sans-serif" font-weight="400" font-size="20" transform="matrix(1 0 0 0.999939 104.561 524)">FP32/</text><text font-family="Times New Roman,Times New Roman_MSFontService,sans-serif" font-weight="400" font-size="20" transform="matrix(1 0 0 0.999939 152.409 524)">int/</text><text font-family="Times New Roman,Times New Roman_MSFontService,sans-serif" font-weight="400" font-size="20" transform="matrix(1 0 0 0.999939 178.917 524)">uint</text><text font-family="Times New Roman,Times New Roman_MSFontService,sans-serif" font-weight="400" font-size="20" transform="matrix(1 0 0 0.999939 214.928 524)">Burst 1</text><text font-family="Times New Roman,Times New Roman_MSFontService,sans-serif" font-weight="400" font-size="20" transform="matrix(1 0 0 0.999939 273.279 524)">)</text><path d="M107.5 542.8 150.757 542.8 150.757 544.133 107.5 544.133ZM149.423 539.466 157.426 543.467 149.423 547.468Z" fill="#4472C4"/><text font-family="Times New Roman,Times New Roman_MSFontService,sans-serif" font-weight="400" font-size="13" transform="matrix(1 0 0 0.999939 161.378 549)">W</text><path d="M94.1669 557.466 94.1669 580.611 92.8332 580.611 92.8331 557.466ZM97.5013 579.277 93.5001 587.279 89.4989 579.277Z" fill="#4472C4"/><text font-family="Times New Roman,Times New Roman_MSFontService,sans-serif" font-weight="400" font-size="13" transform="matrix(1 0 0 0.999939 86.674 608)">H</text><path d="M451.282 880.606 499.296 880.606 499.296 909.413 451.282 909.413Z" fill="#9DC3E6" fill-rule="evenodd"/><path d="M499.296 880.606 547.311 880.606 547.311 909.413 499.296 909.413Z" fill="#C9C9C9" fill-rule="evenodd"/><path d="M499.296 879.939 499.296 910.08" stroke="#000000" stroke-width="1.33373" stroke-linejoin="round" stroke-miterlimit="10" fill="none" fill-rule="evenodd"/><path d="M451.282 879.939 451.282 910.08" stroke="#000000" stroke-width="1.33373" stroke-linejoin="round" stroke-miterlimit="10" fill="none" fill-rule="evenodd"/><path d="M547.311 879.939 547.311 910.08" stroke="#000000" stroke-width="1.33373" stroke-linejoin="round" stroke-miterlimit="10" fill="none" fill-rule="evenodd"/><path d="M450.615 880.606 547.978 880.606" stroke="#000000" stroke-width="1.33373" stroke-linejoin="round" stroke-miterlimit="10" fill="none" fill-rule="evenodd"/><path d="M450.615 909.413 547.978 909.413" stroke="#000000" stroke-width="1.33373" stroke-linejoin="round" stroke-miterlimit="10" fill="none" fill-rule="evenodd"/><text font-family="Times New Roman,Times New Roman_MSFontService,sans-serif" font-weight="400" font-size="16" transform="matrix(1 0 0 0.999939 452.694 871)">Burst4</text><text font-family="Microsoft YaHei,Microsoft YaHei_MSFontService,sans-serif" font-weight="400" font-size="16" transform="matrix(1 0 0 0.999939 499.375 871)">数据</text><path d="M451.282 822.32 499.296 822.32 499.296 851.127 451.282 851.127Z" fill="#9DC3E6" fill-rule="evenodd"/><path d="M451.282 821.654 451.282 851.794" stroke="#000000" stroke-width="1.33373" stroke-linejoin="round" stroke-miterlimit="10" fill="none" fill-rule="evenodd"/><path d="M499.296 821.654 499.296 851.794" stroke="#000000" stroke-width="1.33373" stroke-linejoin="round" stroke-miterlimit="10" fill="none" fill-rule="evenodd"/><path d="M450.615 822.32 499.963 822.32" stroke="#000000" stroke-width="1.33373" stroke-linejoin="round" stroke-miterlimit="10" fill="none" fill-rule="evenodd"/><path d="M450.615 851.127 499.963 851.127" stroke="#000000" stroke-width="1.33373" stroke-linejoin="round" stroke-miterlimit="10" fill="none" fill-rule="evenodd"/><text font-family="Times New Roman,Times New Roman_MSFontService,sans-serif" font-weight="400" font-size="16" transform="matrix(1 0 0 0.999939 452.694 813)">Burst2</text><text font-family="Microsoft YaHei,Microsoft YaHei_MSFontService,sans-serif" font-weight="400" font-size="16" transform="matrix(1 0 0 0.999939 499.375 813)">数据</text><path d="M106.712 1260.58 231.55 1260.58 231.55 1284.58 106.712 1284.58Z" fill="#9DC3E6" fill-rule="evenodd"/><path d="M231.55 1260.58 356.387 1260.58 356.387 1284.58 231.55 1284.58Z" fill="#C9C9C9" fill-rule="evenodd"/><path d="M106.712 1284.58 231.55 1284.58 231.55 1308.59 106.712 1308.59Z" fill="#9DC3E6" fill-rule="evenodd"/><path d="M231.55 1284.58 356.387 1284.58 356.387 1308.59 231.55 1308.59Z" fill="#C9C9C9" fill-rule="evenodd"/><path d="M106.712 1308.59 231.55 1308.59 231.55 1332.59 106.712 1332.59Z" fill="#FFF2CC" fill-rule="evenodd"/><path d="M231.55 1308.59 356.387 1308.59 356.387 1332.59 231.55 1332.59Z" fill="#FFF2CC" fill-rule="evenodd"/><path d="M106.712 1332.59 231.55 1332.59 231.55 1356.6 106.712 1356.6Z" fill="#FFF2CC" fill-rule="evenodd"/><path d="M231.55 1332.59 356.387 1332.59 356.387 1356.6 231.55 1356.6Z" fill="#FFF2CC" fill-rule="evenodd"/><path d="M231.55 1259.91 231.55 1357.27" stroke="#000000" stroke-width="1.33373" stroke-linejoin="round" stroke-miterlimit="10" fill="none" fill-rule="evenodd"/><path d="M106.045 1284.58 357.054 1284.58" stroke="#000000" stroke-width="1.33373" stroke-linecap="square" stroke-linejoin="round" stroke-miterlimit="10" stroke-dasharray="4.0012 1.33373" fill="none" fill-rule="evenodd"/><path d="M106.045 1308.59 357.054 1308.59" stroke="#000000" stroke-width="1.33373" stroke-linecap="square" stroke-linejoin="round" stroke-miterlimit="10" stroke-dasharray="4.0012 1.33373" fill="none" fill-rule="evenodd"/><path d="M106.045 1332.59 357.054 1332.59" stroke="#000000" stroke-width="1.33373" stroke-linecap="square" stroke-linejoin="round" stroke-miterlimit="10" stroke-dasharray="4.0012 1.33373" fill="none" fill-rule="evenodd"/><path d="M106.712 1259.91 106.712 1357.27" stroke="#000000" stroke-width="1.33373" stroke-linejoin="round" stroke-miterlimit="10" fill="none" fill-rule="evenodd"/><path d="M356.387 1259.91 356.387 1357.27" stroke="#000000" stroke-width="1.33373" stroke-linejoin="round" stroke-miterlimit="10" fill="none" fill-rule="evenodd"/><path d="M106.045 1260.58 357.054 1260.58" stroke="#000000" stroke-width="1.33373" stroke-linejoin="round" stroke-miterlimit="10" fill="none" fill-rule="evenodd"/><path d="M106.045 1356.6 357.054 1356.6" stroke="#000000" stroke-width="1.33373" stroke-linejoin="round" stroke-miterlimit="10" fill="none" fill-rule="evenodd"/><text font-family="DengXian,DengXian_MSFontService,sans-serif" font-weight="400" font-size="12" transform="matrix(1 0 0 0.999939 241.152 1276)">数据块</text><text font-family="Calibri,Calibri_MSFontService,sans-serif" font-weight="400" font-size="12" transform="matrix(1 0 0 0.999939 277.163 1276)">1</text><text font-family="DengXian,DengXian_MSFontService,sans-serif" font-weight="400" font-size="12" transform="matrix(1 0 0 0.999939 285.833 1276)">数据子块</text><text font-family="Calibri,Calibri_MSFontService,sans-serif" font-weight="400" font-size="12" transform="matrix(1 0 0 0.999939 333.847 1276)">0</text><text font-family="DengXian,DengXian_MSFontService,sans-serif" font-weight="400" font-size="12" transform="matrix(1 0 0 0.999939 116.315 1276)">数据块</text><text font-family="Calibri,Calibri_MSFontService,sans-serif" font-weight="400" font-size="12" transform="matrix(1 0 0 0.999939 152.326 1276)">0</text><text font-family="DengXian,DengXian_MSFontService,sans-serif" font-weight="400" font-size="12" transform="matrix(1 0 0 0.999939 160.995 1276)">数据子块</text><text font-family="Calibri,Calibri_MSFontService,sans-serif" font-weight="400" font-size="12" transform="matrix(1 0 0 0.999939 209.01 1276)">0</text><text font-family="DengXian,DengXian_MSFontService,sans-serif" font-weight="400" font-size="12" transform="matrix(1 0 0 0.999939 241.152 1300)">数据块</text><text font-family="Calibri,Calibri_MSFontService,sans-serif" font-weight="400" font-size="12" transform="matrix(1 0 0 0.999939 277.163 1300)">1</text><text font-family="DengXian,DengXian_MSFontService,sans-serif" font-weight="400" font-size="12" transform="matrix(1 0 0 0.999939 285.833 1300)">数据子块</text><text font-family="Calibri,Calibri_MSFontService,sans-serif" font-weight="400" font-size="12" transform="matrix(1 0 0 0.999939 333.847 1300)">1</text><text font-family="DengXian,DengXian_MSFontService,sans-serif" font-weight="400" font-size="12" transform="matrix(1 0 0 0.999939 116.315 1300)">数据块</text><text font-family="Calibri,Calibri_MSFontService,sans-serif" font-weight="400" font-size="12" transform="matrix(1 0 0 0.999939 152.326 1300)">0</text><text font-family="DengXian,DengXian_MSFontService,sans-serif" font-weight="400" font-size="12" transform="matrix(1 0 0 0.999939 160.995 1300)">数据子块</text><text font-family="Calibri,Calibri_MSFontService,sans-serif" font-weight="400" font-size="12" transform="matrix(1 0 0 0.999939 209.01 1300)">1</text><text font-family="DengXian,DengXian_MSFontService,sans-serif" font-weight="400" font-size="12" transform="matrix(1 0 0 0.999939 241.152 1324)">数据块</text><text font-family="Calibri,Calibri_MSFontService,sans-serif" font-weight="400" font-size="12" transform="matrix(1 0 0 0.999939 277.163 1324)">1</text><text font-family="DengXian,DengXian_MSFontService,sans-serif" font-weight="400" font-size="12" transform="matrix(1 0 0 0.999939 285.833 1324)">数据子块</text><text font-family="Calibri,Calibri_MSFontService,sans-serif" font-weight="400" font-size="12" transform="matrix(1 0 0 0.999939 333.847 1324)">2</text><text font-family="DengXian,DengXian_MSFontService,sans-serif" font-weight="400" font-size="12" transform="matrix(1 0 0 0.999939 116.315 1324)">数据块</text><text font-family="Calibri,Calibri_MSFontService,sans-serif" font-weight="400" font-size="12" transform="matrix(1 0 0 0.999939 152.326 1324)">0</text><text font-family="DengXian,DengXian_MSFontService,sans-serif" font-weight="400" font-size="12" transform="matrix(1 0 0 0.999939 160.995 1324)">数据子块</text><text font-family="Calibri,Calibri_MSFontService,sans-serif" font-weight="400" font-size="12" transform="matrix(1 0 0 0.999939 209.01 1324)">2</text><text font-family="DengXian,DengXian_MSFontService,sans-serif" font-weight="400" font-size="12" transform="matrix(1 0 0 0.999939 241.152 1348)">数据块</text><text font-family="Calibri,Calibri_MSFontService,sans-serif" font-weight="400" font-size="12" transform="matrix(1 0 0 0.999939 277.163 1348)">1</text><text font-family="DengXian,DengXian_MSFontService,sans-serif" font-weight="400" font-size="12" transform="matrix(1 0 0 0.999939 285.833 1348)">数据子块</text><text font-family="Calibri,Calibri_MSFontService,sans-serif" font-weight="400" font-size="12" transform="matrix(1 0 0 0.999939 333.847 1348)">3</text><text font-family="DengXian,DengXian_MSFontService,sans-serif" font-weight="400" font-size="12" transform="matrix(1 0 0 0.999939 116.315 1348)">数据块</text><text font-family="Calibri,Calibri_MSFontService,sans-serif" font-weight="400" font-size="12" transform="matrix(1 0 0 0.999939 152.326 1348)">0</text><text font-family="DengXian,DengXian_MSFontService,sans-serif" font-weight="400" font-size="12" transform="matrix(1 0 0 0.999939 160.995 1348)">数据子块</text><text font-family="Calibri,Calibri_MSFontService,sans-serif" font-weight="400" font-size="12" transform="matrix(1 0 0 0.999939 209.01 1348)">3</text><text font-family="Microsoft YaHei,Microsoft YaHei_MSFontService,sans-serif" font-weight="400" font-size="19" transform="matrix(1 0 0 0.999939 100.828 1180)">映射到一个线程束一次读取或存</text><text font-family="Microsoft YaHei,Microsoft YaHei_MSFontService,sans-serif" font-weight="400" font-size="19" transform="matrix(1 0 0 0.999939 100.828 1202)">储的数据子</text><text font-family="Microsoft YaHei,Microsoft YaHei_MSFontService,sans-serif" font-weight="400" font-size="19" transform="matrix(1 0 0 0.999939 194.189 1202)">块</text><text font-family="Times New Roman,Times New Roman_MSFontService,sans-serif" font-weight="400" font-size="20" transform="matrix(1 0 0 0.999939 100.828 1226)">(</text><text font-family="Times New Roman,Times New Roman_MSFontService,sans-serif" font-weight="400" font-size="20" transform="matrix(1 0 0 0.999939 107.496 1226)">FP32/</text><text font-family="Times New Roman,Times New Roman_MSFontService,sans-serif" font-weight="400" font-size="20" transform="matrix(1 0 0 0.999939 155.344 1226)">int/</text><text font-family="Times New Roman,Times New Roman_MSFontService,sans-serif" font-weight="400" font-size="20" transform="matrix(1 0 0 0.999939 181.852 1226)">uint</text><text font-family="Times New Roman,Times New Roman_MSFontService,sans-serif" font-weight="400" font-size="20" transform="matrix(1 0 0 0.999939 217.863 1226)">Burst2/Burst4</text><text font-family="Times New Roman,Times New Roman_MSFontService,sans-serif" font-weight="400" font-size="20" transform="matrix(1 0 0 0.999939 330.063 1226)">)</text><path d="M105.5 1245.76 148.757 1245.76 148.757 1247.09 105.5 1247.09ZM147.423 1242.42 155.426 1246.42 147.423 1250.42Z" fill="#4472C4"/><text font-family="Times New Roman,Times New Roman_MSFontService,sans-serif" font-weight="400" font-size="13" transform="matrix(1 0 0 0.999939 159.409 1251)">W</text><path d="M92.1669 1259.42 92.167 1282.57 90.8332 1282.57 90.8332 1259.42ZM95.5013 1281.23 91.5001 1289.24 87.4989 1281.23Z" fill="#4472C4"/><text font-family="Times New Roman,Times New Roman_MSFontService,sans-serif" font-weight="400" font-size="13" transform="matrix(1 0 0 0.999939 84.7052 1311)">H</text><path d="M43.5315 793.232 110.752 793.232 110.752 832.175 43.5315 832.175Z" fill="#9DC3E6" fill-rule="evenodd"/><path d="M110.752 793.232 177.972 793.232 177.972 832.175 110.752 832.175Z" fill="#C9C9C9" fill-rule="evenodd"/><path d="M177.972 793.232 245.192 793.232 245.192 832.175 177.972 832.175Z" fill="#FFF2CC" fill-rule="evenodd"/><path d="M245.192 793.232 312.412 793.232 312.412 832.175 245.192 832.175Z" fill="#FFF2CC" fill-rule="evenodd"/><path d="M312.412 793.232 427.646 793.232 427.646 1143.72 312.412 1143.72Z" fill="#FFF2CC" fill-rule="evenodd"/><path d="M43.5315 832.175 110.752 832.175 110.752 871.117 43.5315 871.117Z" fill="#9DC3E6" fill-rule="evenodd"/><path d="M110.752 832.175 177.972 832.175 177.972 871.117 110.752 871.117Z" fill="#C9C9C9" fill-rule="evenodd"/><path d="M177.972 832.175 245.192 832.175 245.192 871.117 177.972 871.117Z" fill="#FFF2CC" fill-rule="evenodd"/><path d="M245.192 832.175 312.412 832.175 312.412 871.117 245.192 871.117Z" fill="#FFF2CC" fill-rule="evenodd"/><path d="M43.5315 871.117 110.752 871.117 110.752 910.06 43.5315 910.06Z" fill="#9DC3E6" fill-rule="evenodd"/><path d="M110.752 871.117 177.972 871.117 177.972 910.06 110.752 910.06Z" fill="#C9C9C9" fill-rule="evenodd"/><path d="M177.972 871.117 245.192 871.117 245.192 910.06 177.972 910.06Z" fill="#FFF2CC" fill-rule="evenodd"/><path d="M245.192 871.117 312.412 871.117 312.412 910.06 245.192 910.06Z" fill="#FFF2CC" fill-rule="evenodd"/><path d="M43.5315 910.06 110.752 910.06 110.752 949.003 43.5315 949.003Z" fill="#9DC3E6" fill-rule="evenodd"/><path d="M110.752 910.06 177.972 910.06 177.972 949.003 110.752 949.003Z" fill="#C9C9C9" fill-rule="evenodd"/><path d="M177.972 910.06 245.192 910.06 245.192 949.003 177.972 949.003Z" fill="#FFF2CC" fill-rule="evenodd"/><path d="M245.192 910.06 312.412 910.06 312.412 949.003 245.192 949.003Z" fill="#FFF2CC" fill-rule="evenodd"/><path d="M43.5315 949.003 110.752 949.003 110.752 987.945 43.5315 987.945Z" fill="#9DC3E6" fill-rule="evenodd"/><path d="M110.752 949.003 177.972 949.003 177.972 987.945 110.752 987.945Z" fill="#C9C9C9" fill-rule="evenodd"/><path d="M177.972 949.003 245.192 949.003 245.192 987.945 177.972 987.945Z" fill="#FFF2CC" fill-rule="evenodd"/><path d="M245.192 949.003 312.412 949.003 312.412 987.945 245.192 987.945Z" fill="#FFF2CC" fill-rule="evenodd"/><path d="M43.5315 987.945 110.752 987.945 110.752 1026.89 43.5315 1026.89Z" fill="#9DC3E6" fill-rule="evenodd"/><path d="M110.752 987.945 177.972 987.945 177.972 1026.89 110.752 1026.89Z" fill="#C9C9C9" fill-rule="evenodd"/><path d="M177.972 987.945 245.192 987.945 245.192 1026.89 177.972 1026.89Z" fill="#FFF2CC" fill-rule="evenodd"/><path d="M245.192 987.945 312.412 987.945 312.412 1026.89 245.192 1026.89Z" fill="#FFF2CC" fill-rule="evenodd"/><path d="M43.5315 1026.89 110.752 1026.89 110.752 1065.83 43.5315 1065.83Z" fill="#9DC3E6" fill-rule="evenodd"/><path d="M110.752 1026.89 177.972 1026.89 177.972 1065.83 110.752 1065.83Z" fill="#C9C9C9" fill-rule="evenodd"/><path d="M177.972 1026.89 245.192 1026.89 245.192 1065.83 177.972 1065.83Z" fill="#FFF2CC" fill-rule="evenodd"/><path d="M245.192 1026.89 312.412 1026.89 312.412 1065.83 245.192 1065.83Z" fill="#FFF2CC" fill-rule="evenodd"/><path d="M43.5315 1065.83 110.752 1065.83 110.752 1104.77 43.5315 1104.77Z" fill="#9DC3E6" fill-rule="evenodd"/><path d="M110.752 1065.83 177.972 1065.83 177.972 1104.77 110.752 1104.77Z" fill="#C9C9C9" fill-rule="evenodd"/><path d="M177.972 1065.83 245.192 1065.83 245.192 1104.77 177.972 1104.77Z" fill="#FFF2CC" fill-rule="evenodd"/><path d="M245.192 1065.83 312.412 1065.83 312.412 1104.77 245.192 1104.77Z" fill="#FFF2CC" fill-rule="evenodd"/><path d="M43.5315 1104.77 110.752 1104.77 110.752 1143.72 43.5315 1143.72Z" fill="#FFF2CC" fill-rule="evenodd"/><path d="M110.752 1104.77 177.972 1104.77 177.972 1143.72 110.752 1143.72Z" fill="#FFF2CC" fill-rule="evenodd"/><path d="M177.972 1104.77 245.192 1104.77 245.192 1143.72 177.972 1143.72Z" fill="#FFF2CC" fill-rule="evenodd"/><path d="M245.192 1104.77 312.412 1104.77 312.412 1143.72 245.192 1143.72Z" fill="#FFF2CC" fill-rule="evenodd"/><path d="M110.752 792.565 110.752 1144.38" stroke="#000000" stroke-width="1.33373" stroke-linejoin="round" stroke-miterlimit="10" fill="none" fill-rule="evenodd"/><path d="M177.972 792.565 177.972 1144.38" stroke="#000000" stroke-width="1.33373" stroke-linejoin="round" stroke-miterlimit="10" fill="none" fill-rule="evenodd"/><path d="M245.192 792.565 245.192 1144.38" stroke="#000000" stroke-width="1.33373" stroke-linejoin="round" stroke-miterlimit="10" fill="none" fill-rule="evenodd"/><path d="M312.412 792.565 312.412 1144.38" stroke="#000000" stroke-width="1.33373" stroke-linejoin="round" stroke-miterlimit="10" fill="none" fill-rule="evenodd"/><path d="M42.8646 832.175 313.079 832.175" stroke="#000000" stroke-width="1.33373" stroke-linejoin="round" stroke-miterlimit="10" fill="none" fill-rule="evenodd"/><path d="M42.8646 871.117 313.079 871.117" stroke="#000000" stroke-width="1.33373" stroke-linejoin="round" stroke-miterlimit="10" fill="none" fill-rule="evenodd"/><path d="M42.8646 910.06 313.079 910.06" stroke="#000000" stroke-width="1.33373" stroke-linejoin="round" stroke-miterlimit="10" fill="none" fill-rule="evenodd"/><path d="M42.8646 949.003 313.079 949.003" stroke="#000000" stroke-width="1.33373" stroke-linejoin="round" stroke-miterlimit="10" fill="none" fill-rule="evenodd"/><path d="M42.8646 987.945 313.079 987.945" stroke="#000000" stroke-width="1.33373" stroke-linejoin="round" stroke-miterlimit="10" fill="none" fill-rule="evenodd"/><path d="M42.8646 1026.89 313.079 1026.89" stroke="#000000" stroke-width="1.33373" stroke-linejoin="round" stroke-miterlimit="10" fill="none" fill-rule="evenodd"/><path d="M42.8646 1065.83 313.079 1065.83" stroke="#000000" stroke-width="1.33373" stroke-linejoin="round" stroke-miterlimit="10" fill="none" fill-rule="evenodd"/><path d="M42.8646 1104.77 313.079 1104.77" stroke="#000000" stroke-width="1.33373" stroke-linejoin="round" stroke-miterlimit="10" fill="none" fill-rule="evenodd"/><path d="M43.5315 792.565 43.5315 1144.38" stroke="#000000" stroke-width="1.33373" stroke-linejoin="round" stroke-miterlimit="10" fill="none" fill-rule="evenodd"/><path d="M427.646 792.565 427.646 1144.38" stroke="#000000" stroke-width="1.33373" stroke-linejoin="round" stroke-miterlimit="10" fill="none" fill-rule="evenodd"/><path d="M42.8646 793.232 428.313 793.232" stroke="#000000" stroke-width="1.33373" stroke-linejoin="round" stroke-miterlimit="10" fill="none" fill-rule="evenodd"/><path d="M42.8646 1143.72 428.313 1143.72" stroke="#000000" stroke-width="1.33373" stroke-linejoin="round" stroke-miterlimit="10" fill="none" fill-rule="evenodd"/><text font-family="Calibri,Calibri_MSFontService,sans-serif" font-weight="400" font-size="20" transform="matrix(1 0 0 0.999939 354.358 963)">2KB</text><text font-family="DengXian,DengXian_MSFontService,sans-serif" font-weight="400" font-size="20" transform="matrix(1 0 0 0.999939 330.017 987)">对齐数据</text><text font-family="DengXian,DengXian_MSFontService,sans-serif" font-weight="400" font-size="13" transform="matrix(1 0 0 0.999939 255.378 817)">数据块</text><text font-family="Calibri,Calibri_MSFontService,sans-serif" font-weight="400" font-size="13" transform="matrix(1 0 0 0.999939 295.39 817)">3</text><text font-family="DengXian,DengXian_MSFontService,sans-serif" font-weight="400" font-size="13" transform="matrix(1 0 0 0.999939 188.158 817)">数据块</text><text font-family="Calibri,Calibri_MSFontService,sans-serif" font-weight="400" font-size="13" transform="matrix(1 0 0 0.999939 228.17 817)">2</text><text font-family="DengXian,DengXian_MSFontService,sans-serif" font-weight="400" font-size="13" transform="matrix(1 0 0 0.999939 120.938 817)">数据块</text><text font-family="Calibri,Calibri_MSFontService,sans-serif" font-weight="400" font-size="13" transform="matrix(1 0 0 0.999939 160.95 817)">1</text><text font-family="DengXian,DengXian_MSFontService,sans-serif" font-weight="400" font-size="13" transform="matrix(1 0 0 0.999939 53.7178 817)">数据块</text><text font-family="Calibri,Calibri_MSFontService,sans-serif" font-weight="400" font-size="13" transform="matrix(1 0 0 0.999939 93.7298 817)">0</text><text font-family="Microsoft YaHei,Microsoft YaHei_MSFontService,sans-serif" font-weight="400" font-size="19" transform="matrix(1 0 0 0.999939 36.1396 732)">映射到一个流式处理器簇一次读取或存储的数据块</text><text font-family="Times New Roman,Times New Roman_MSFontService,sans-serif" font-weight="400" font-size="20" transform="matrix(1 0 0 0.999939 36.1396 756)">(</text><text font-family="Times New Roman,Times New Roman_MSFontService,sans-serif" font-weight="400" font-size="20" transform="matrix(1 0 0 0.999939 42.8083 756)">FP32/</text><text font-family="Times New Roman,Times New Roman_MSFontService,sans-serif" font-weight="400" font-size="20" transform="matrix(1 0 0 0.999939 90.656 756)">int/</text><text font-family="Times New Roman,Times New Roman_MSFontService,sans-serif" font-weight="400" font-size="20" transform="matrix(1 0 0 0.999939 117.164 756)">uint</text><text font-family="Times New Roman,Times New Roman_MSFontService,sans-serif" font-weight="400" font-size="20" transform="matrix(1 0 0 0.999939 153.175 756)">Burst2/Burst4</text><text font-family="Times New Roman,Times New Roman_MSFontService,sans-serif" font-weight="400" font-size="20" transform="matrix(1 0 0 0.999939 265.375 756)">)</text><path d="M41.5 776.785 84.7569 776.786 84.7569 778.119 41.5 778.119ZM83.4232 773.451 91.4256 777.452 83.4232 781.453Z" fill="#4472C4"/><text font-family="Times New Roman,Times New Roman_MSFontService,sans-serif" font-weight="400" font-size="13" transform="matrix(1 0 0 0.999939 95.3938 782)">W</text><path d="M28.1669 790.451 28.1669 813.597 26.8332 813.597 26.8331 790.451ZM31.5013 812.263 27.5001 820.265 23.4989 812.263Z" fill="#4472C4"/><text font-family="Times New Roman,Times New Roman_MSFontService,sans-serif" font-weight="400" font-size="13" transform="matrix(1 0 0 0.999939 20.6896 842)">H</text></g></svg>