<svg width="730" height="269" xmlns="http://www.w3.org/2000/svg" xmlns:xlink="http://www.w3.org/1999/xlink" overflow="hidden"><defs><clipPath id="clip0"><rect x="0" y="0" width="730" height="269"/></clipPath></defs><g clip-path="url(#clip0)"><rect x="0" y="0" width="730" height="269.044" fill="#FFFFFF"/><path d="M101.59 76.4627 173.623 76.4627 173.623 214.148 101.59 214.148Z" fill="#FFF2CC" fill-rule="evenodd"/><path d="M173.623 76.4627 245.655 76.4627 245.655 214.148 173.623 214.148Z" fill="#FFF2CC" fill-rule="evenodd"/><path d="M245.655 76.4627 293.677 76.4627 293.677 214.148 245.655 214.148Z" fill="#FFF2CC" fill-rule="evenodd"/><path d="M293.677 76.4627 365.71 76.4627 365.71 214.148 293.677 214.148Z" fill="#FFF2CC" fill-rule="evenodd"/><path d="M365.71 76.4627 437.743 76.4627 437.743 214.148 365.71 214.148Z" fill="#FFF2CC" fill-rule="evenodd"/><path d="M437.743 76.4627 509.776 76.4627 509.776 214.148 437.743 214.148Z" fill="#FFF2CC" fill-rule="evenodd"/><path d="M509.776 76.4627 557.798 76.4627 557.798 214.148 509.776 214.148Z" fill="#FFF2CC" fill-rule="evenodd"/><path d="M557.798 76.4627 629.831 76.4627 629.831 214.148 557.798 214.148Z" fill="#FFF2CC" fill-rule="evenodd"/><path d="M629.831 76.4627 719.389 76.4627 719.389 214.148 629.831 214.148Z" fill="#FFF2CC" fill-rule="evenodd"/><path d="M173.623 75.7956 173.623 214.815" stroke="#000000" stroke-width="1.33394" stroke-linejoin="round" stroke-miterlimit="10" fill="none" fill-rule="evenodd"/><path d="M245.655 75.7956 245.655 214.815" stroke="#000000" stroke-width="1.33394" stroke-linejoin="round" stroke-miterlimit="10" fill="none" fill-rule="evenodd"/><path d="M293.677 75.7956 293.677 214.815" stroke="#000000" stroke-width="1.33394" stroke-linejoin="round" stroke-miterlimit="10" fill="none" fill-rule="evenodd"/><path d="M365.71 75.7956 365.71 214.815" stroke="#000000" stroke-width="1.33394" stroke-linejoin="round" stroke-miterlimit="10" fill="none" fill-rule="evenodd"/><path d="M437.743 75.7956 437.743 214.815" stroke="#000000" stroke-width="1.33394" stroke-linejoin="round" stroke-miterlimit="10" fill="none" fill-rule="evenodd"/><path d="M509.776 75.7956 509.776 214.815" stroke="#000000" stroke-width="1.33394" stroke-linejoin="round" stroke-miterlimit="10" fill="none" fill-rule="evenodd"/><path d="M557.798 75.7956 557.798 214.815" stroke="#000000" stroke-width="1.33394" stroke-linejoin="round" stroke-miterlimit="10" fill="none" fill-rule="evenodd"/><path d="M629.831 75.7956 629.831 214.815" stroke="#000000" stroke-width="1.33394" stroke-linejoin="round" stroke-miterlimit="10" fill="none" fill-rule="evenodd"/><path d="M101.59 75.7956 101.59 214.815" stroke="#000000" stroke-width="1.33394" stroke-linejoin="round" stroke-miterlimit="10" fill="none" fill-rule="evenodd"/><path d="M719.389 75.7956 719.389 214.815" stroke="#000000" stroke-width="1.33394" stroke-linejoin="round" stroke-miterlimit="10" fill="none" fill-rule="evenodd"/><path d="M100.923 76.4627 720.056 76.4627" stroke="#000000" stroke-width="1.33394" stroke-linejoin="round" stroke-miterlimit="10" fill="none" fill-rule="evenodd"/><path d="M100.923 214.148 720.056 214.148" stroke="#000000" stroke-width="1.33394" stroke-linejoin="round" stroke-miterlimit="10" fill="none" fill-rule="evenodd"/><text font-family="Calibri,Calibri_MSFontService,sans-serif" font-weight="400" font-size="13" transform="matrix(1 0 0 1.00016 111.194 93)">(1, 0, 0),</text><text font-family="Calibri,Calibri_MSFontService,sans-serif" font-weight="400" font-size="13" transform="matrix(1 0 0 1.00016 111.194 109)">(2, 0, 0),</text><text font-family="Calibri,Calibri_MSFontService,sans-serif" font-weight="400" font-size="13" transform="matrix(1 0 0 1.00016 111.194 125)">… ,</text><text font-family="Calibri,Calibri_MSFontService,sans-serif" font-weight="400" font-size="13" transform="matrix(1 0 0 1.00016 111.194 141)">(31, 0, 0)</text><text font-family="Calibri,Calibri_MSFontService,sans-serif" font-weight="400" font-size="13" transform="matrix(1 0 0 1.00016 183.227 93)">(1, 0, 1),</text><text font-family="Calibri,Calibri_MSFontService,sans-serif" font-weight="400" font-size="13" transform="matrix(1 0 0 1.00016 183.227 109)">(2, 0, 1),</text><text font-family="Calibri,Calibri_MSFontService,sans-serif" font-weight="400" font-size="13" transform="matrix(1 0 0 1.00016 183.227 125)">… ,</text><text font-family="Calibri,Calibri_MSFontService,sans-serif" font-weight="400" font-size="13" transform="matrix(1 0 0 1.00016 183.227 141)">(31, 0, 1)</text><text font-family="Calibri,Calibri_MSFontService,sans-serif" font-weight="400" font-size="13" transform="matrix(1 0 0 1.00016 265.081 149)">…</text><text font-family="Calibri,Calibri_MSFontService,sans-serif" font-weight="400" font-size="13" transform="matrix(1 0 0 1.00016 303.282 93)">(1, 2, 2),</text><text font-family="Calibri,Calibri_MSFontService,sans-serif" font-weight="400" font-size="13" transform="matrix(1 0 0 1.00016 303.282 109)">(2, 2, 2),</text><text font-family="Calibri,Calibri_MSFontService,sans-serif" font-weight="400" font-size="13" transform="matrix(1 0 0 1.00016 303.282 125)">… ,</text><text font-family="Calibri,Calibri_MSFontService,sans-serif" font-weight="400" font-size="13" transform="matrix(1 0 0 1.00016 303.282 141)">(31, 2, 2)</text><text font-family="Calibri,Calibri_MSFontService,sans-serif" font-weight="400" font-size="13" transform="matrix(1 0 0 1.00016 375.315 93)">(32, 0, 0),</text><text font-family="Calibri,Calibri_MSFontService,sans-serif" font-weight="400" font-size="13" transform="matrix(1 0 0 1.00016 375.315 109)">(33, 0, 0),</text><text font-family="Calibri,Calibri_MSFontService,sans-serif" font-weight="400" font-size="13" transform="matrix(1 0 0 1.00016 375.315 125)">… ,</text><text font-family="Calibri,Calibri_MSFontService,sans-serif" font-weight="400" font-size="13" transform="matrix(1 0 0 1.00016 375.315 141)">(47, 0, 0),</text><text font-family="Calibri,Calibri_MSFontService,sans-serif" font-weight="400" font-size="13" transform="matrix(1 0 0 1.00016 375.315 157)">0, 0, 0, 0,</text><text font-family="Calibri,Calibri_MSFontService,sans-serif" font-weight="400" font-size="13" transform="matrix(1 0 0 1.00016 375.315 173)">0, 0, 0, 0,</text><text font-family="Calibri,Calibri_MSFontService,sans-serif" font-weight="400" font-size="13" transform="matrix(1 0 0 1.00016 375.315 189)">0, 0, 0, 0,</text><text font-family="Calibri,Calibri_MSFontService,sans-serif" font-weight="400" font-size="13" transform="matrix(1 0 0 1.00016 375.315 205)">0, 0, 0, 0,</text><text font-family="Calibri,Calibri_MSFontService,sans-serif" font-weight="400" font-size="13" transform="matrix(1 0 0 1.00016 447.348 93)">(32, 0, 1),</text><text font-family="Calibri,Calibri_MSFontService,sans-serif" font-weight="400" font-size="13" transform="matrix(1 0 0 1.00016 447.348 109)">(33, 0, 1),</text><text font-family="Calibri,Calibri_MSFontService,sans-serif" font-weight="400" font-size="13" transform="matrix(1 0 0 1.00016 447.348 125)">… ,</text><text font-family="Calibri,Calibri_MSFontService,sans-serif" font-weight="400" font-size="13" transform="matrix(1 0 0 1.00016 447.348 141)">(47, 0, 1),</text><text font-family="Calibri,Calibri_MSFontService,sans-serif" font-weight="400" font-size="13" transform="matrix(1 0 0 1.00016 447.348 157)">0, 0, 0, 0,</text><text font-family="Calibri,Calibri_MSFontService,sans-serif" font-weight="400" font-size="13" transform="matrix(1 0 0 1.00016 447.348 173)">0, 0, 0, 0,</text><text font-family="Calibri,Calibri_MSFontService,sans-serif" font-weight="400" font-size="13" transform="matrix(1 0 0 1.00016 447.348 189)">0, 0, 0, 0,</text><text font-family="Calibri,Calibri_MSFontService,sans-serif" font-weight="400" font-size="13" transform="matrix(1 0 0 1.00016 447.348 205)">0, 0, 0, 0,</text><text font-family="Calibri,Calibri_MSFontService,sans-serif" font-weight="400" font-size="13" transform="matrix(1 0 0 1.00016 529.202 149)">…</text><text font-family="Calibri,Calibri_MSFontService,sans-serif" font-weight="400" font-size="13" transform="matrix(1 0 0 1.00016 567.402 93)">(32, 2, 2),</text><text font-family="Calibri,Calibri_MSFontService,sans-serif" font-weight="400" font-size="13" transform="matrix(1 0 0 1.00016 567.402 109)">(33, 2, 2),</text><text font-family="Calibri,Calibri_MSFontService,sans-serif" font-weight="400" font-size="13" transform="matrix(1 0 0 1.00016 567.402 125)">… ,</text><text font-family="Calibri,Calibri_MSFontService,sans-serif" font-weight="400" font-size="13" transform="matrix(1 0 0 1.00016 567.402 141)">(47, 2, 2),</text><text font-family="Calibri,Calibri_MSFontService,sans-serif" font-weight="400" font-size="13" transform="matrix(1 0 0 1.00016 567.402 157)">0, 0, 0, 0,</text><text font-family="Calibri,Calibri_MSFontService,sans-serif" font-weight="400" font-size="13" transform="matrix(1 0 0 1.00016 567.402 173)">0, 0, 0, 0,</text><text font-family="Calibri,Calibri_MSFontService,sans-serif" font-weight="400" font-size="13" transform="matrix(1 0 0 1.00016 567.402 189)">0, 0, 0, 0,</text><text font-family="Calibri,Calibri_MSFontService,sans-serif" font-weight="400" font-size="13" transform="matrix(1 0 0 1.00016 567.402 205)">0, 0, 0, 0,</text><text font-family="Calibri,Calibri_MSFontService,sans-serif" font-weight="400" font-size="13" transform="matrix(1 0 0 1.00016 639.435 149)">0, …</text><path d="M317.5 57.8425 360.404 57.8425 360.404 59.1767 317.5 59.1766ZM359.07 54.5071 367.074 58.5096 359.07 62.5121Z" fill="#4472C4"/><path d="M1.49376e-06-0.666971 40.2288-0.666881 40.2288 0.667061-1.49376e-06 0.666971ZM38.8948-4.00174 46.8985 0.000105035 38.8948 4.00191Z" fill="#4472C4" transform="matrix(-1 0 0 1.00016 149.399 58.5095)"/><text font-family="Times New Roman,Times New Roman_MSFontService,sans-serif" font-weight="400" font-size="13" transform="matrix(1 0 0 1.00016 190.95 62)">32*3*3</text><text font-family="Microsoft YaHei,Microsoft YaHei_MSFontService,sans-serif" font-weight="400" font-size="13" transform="matrix(1 0 0 1.00016 230.968 62)">元素</text><path d="M670.5 232.871 713.404 232.871 713.404 234.205 670.5 234.205ZM712.07 229.536 720.074 233.538 712.07 237.541Z" fill="#4472C4"/><path d="M1.49376e-06-0.666971 40.2288-0.666881 40.2288 0.667061-1.49376e-06 0.666971ZM38.8948-4.00174 46.8985 0.000105035 38.8948 4.00191Z" fill="#4472C4" transform="matrix(-1 0 0 1.00016 144.398 233.538)"/><text font-family="Times New Roman,Times New Roman_MSFontService,sans-serif" font-weight="400" font-size="13" transform="matrix(1 0 0 1.00016 350.956 238)">512</text><text font-family="Microsoft YaHei,Microsoft YaHei_MSFontService,sans-serif" font-weight="400" font-size="13" transform="matrix(1 0 0 1.00016 370.966 238)">字节对齐</text><rect x="279" y="12.002" width="263" height="48.0078" fill="#FFFFFF"/><text font-family="Times New Roman,Times New Roman_MSFontService,sans-serif" font-weight="700" font-size="16" transform="matrix(1 0 0 1.00016 288.315 32)">BF16 48*3*3</text><text font-family="Times New Roman,Times New Roman_MSFontService,sans-serif" font-weight="700" font-size="16" transform="matrix(1 0 0 1.00016 288.315 52)">DepthWiseConvWeight</text><path d="M91.5 149.524C91.5 103.125 111.647 65.5107 136.5 65.5107 161.353 65.5107 181.5 103.125 181.5 149.524 181.5 195.924 161.353 233.538 136.5 233.538 111.647 233.538 91.5 195.924 91.5 149.524Z" stroke="#2F528F" stroke-width="1.33394" stroke-miterlimit="8" fill="none" fill-rule="evenodd"/><text font-family="Times New Roman,Times New Roman_MSFontService,sans-serif" font-weight="400" font-size="13" transform="matrix(1 0 0 1.00016 9.60439 142)">1</text><text font-family="Microsoft YaHei,Microsoft YaHei_MSFontService,sans-serif" font-weight="400" font-size="13" transform="matrix(1 0 0 1.00016 16.2741 142)">过滤器</text><text font-family="Times New Roman,Times New Roman_MSFontService,sans-serif" font-weight="400" font-size="13" transform="matrix(1 0 0 1.00016 9.60439 158)">32</text><text font-family="Microsoft YaHei,Microsoft YaHei_MSFontService,sans-serif" font-weight="400" font-size="13" transform="matrix(1 0 0 1.00016 22.9438 158)">通道</text><text font-family="Times New Roman,Times New Roman_MSFontService,sans-serif" font-weight="400" font-size="13" transform="matrix(1 0 0 1.00016 9.60439 174)">64</text><text font-family="Microsoft YaHei,Microsoft YaHei_MSFontService,sans-serif" font-weight="400" font-size="13" transform="matrix(1 0 0 1.00016 22.9438 174)">字节</text></g></svg>