<svg width="518" height="576" xmlns="http://www.w3.org/2000/svg" xmlns:xlink="http://www.w3.org/1999/xlink" overflow="hidden"><defs><clipPath id="clip0"><rect x="0" y="0" width="518" height="576"/></clipPath></defs><g clip-path="url(#clip0)"><rect x="0" y="0" width="518" height="576.371" fill="#FFFFFF"/><path d="M12.3017 16.7043 94.5344 16.7043 94.5344 44.9424 12.3017 44.9424Z" fill="#FFFFFF" fill-rule="evenodd"/><path d="M94.5344 16.7043 176.767 16.7043 176.767 44.9424 94.5344 44.9424Z" fill="#FFFFFF" fill-rule="evenodd"/><path d="M12.3017 44.9424 94.5344 44.9424 94.5344 77.0894 12.3017 77.0894Z" fill="#FFFFFF" fill-rule="evenodd"/><path d="M94.5344 44.9424 176.767 44.9424 176.767 77.0894 94.5344 77.0894Z" fill="#FFFFFF" fill-rule="evenodd"/><path d="M176.767 44.9424 259 44.9424 259 77.0894 176.767 77.0894Z" fill="#FFFFFF" fill-rule="evenodd"/><path d="M259 44.9424 341.233 44.9424 341.233 77.0894 259 77.0894Z" fill="#FFFFFF" fill-rule="evenodd"/><path d="M341.233 44.9424 423.465 44.9424 423.465 77.0894 341.233 77.0894Z" fill="#FFFFFF" fill-rule="evenodd"/><path d="M423.465 44.9424 505.698 44.9424 505.698 77.0894 423.465 77.0894Z" fill="#FFFFFF" fill-rule="evenodd"/><path d="M12.3017 77.0894 94.5344 77.0894 94.5344 109.237 12.3017 109.237Z" fill="#FFFFFF" fill-rule="evenodd"/><path d="M94.5344 77.0894 176.767 77.0894 176.767 109.237 94.5344 109.237Z" fill="#FFFFFF" fill-rule="evenodd"/><path d="M176.767 77.0894 259 77.0894 259 109.237 176.767 109.237Z" fill="#FFFFFF" fill-rule="evenodd"/><path d="M259 77.0894 341.233 77.0894 341.233 109.237 259 109.237Z" fill="#FFFFFF" fill-rule="evenodd"/><path d="M341.233 77.0894 423.465 77.0894 423.465 109.237 341.233 109.237Z" fill="#FFFFFF" fill-rule="evenodd"/><path d="M423.465 77.0894 505.698 77.0894 505.698 109.237 423.465 109.237Z" fill="#FFFFFF" fill-rule="evenodd"/><path d="M12.3017 109.237 94.5344 109.237 94.5344 141.384 12.3017 141.384Z" fill="#FFFFFF" fill-rule="evenodd"/><path d="M94.5344 109.237 176.767 109.237 176.767 141.384 94.5344 141.384Z" fill="#FFFFFF" fill-rule="evenodd"/><path d="M176.767 109.237 259 109.237 259 141.384 176.767 141.384Z" fill="#FFFFFF" fill-rule="evenodd"/><path d="M259 109.237 341.233 109.237 341.233 141.384 259 141.384Z" fill="#FFFFFF" fill-rule="evenodd"/><path d="M341.233 109.237 423.465 109.237 423.465 141.384 341.233 141.384Z" fill="#FFFFFF" fill-rule="evenodd"/><path d="M423.465 109.237 505.698 109.237 505.698 141.384 423.465 141.384Z" fill="#FFFFFF" fill-rule="evenodd"/><path d="M12.3017 141.384 94.5344 141.384 94.5344 173.531 12.3017 173.531Z" fill="#FFFFFF" fill-rule="evenodd"/><path d="M94.5344 141.384 176.767 141.384 176.767 173.531 94.5344 173.531Z" fill="#FFFFFF" fill-rule="evenodd"/><path d="M176.767 141.384 259 141.384 259 173.531 176.767 173.531Z" fill="#FFFFFF" fill-rule="evenodd"/><path d="M259 141.384 341.233 141.384 341.233 173.531 259 173.531Z" fill="#FFFFFF" fill-rule="evenodd"/><path d="M341.233 141.384 423.465 141.384 423.465 173.531 341.233 173.531Z" fill="#FFFFFF" fill-rule="evenodd"/><path d="M423.465 141.384 505.698 141.384 505.698 173.531 423.465 173.531Z" fill="#FFFFFF" fill-rule="evenodd"/><path d="M12.3017 173.531 94.5344 173.531 94.5344 205.678 12.3017 205.678Z" fill="#FFFFFF" fill-rule="evenodd"/><path d="M94.5344 173.531 176.767 173.531 176.767 205.678 94.5344 205.678Z" fill="#FFFFFF" fill-rule="evenodd"/><path d="M176.767 173.531 259 173.531 259 205.678 176.767 205.678Z" fill="#FFFFFF" fill-rule="evenodd"/><path d="M259 173.531 341.233 173.531 341.233 205.678 259 205.678Z" fill="#FFFFFF" fill-rule="evenodd"/><path d="M341.233 173.531 423.465 173.531 423.465 205.678 341.233 205.678Z" fill="#FFFFFF" fill-rule="evenodd"/><path d="M423.465 173.531 505.698 173.531 505.698 205.678 423.465 205.678Z" fill="#FFFFFF" fill-rule="evenodd"/><path d="M12.3017 205.678 94.5344 205.678 94.5344 237.825 12.3017 237.825Z" fill="#FFFFFF" fill-rule="evenodd"/><path d="M94.5344 205.678 176.767 205.678 176.767 237.825 94.5344 237.825Z" fill="#FFFFFF" fill-rule="evenodd"/><path d="M176.767 205.678 259 205.678 259 237.825 176.767 237.825Z" fill="#FFFFFF" fill-rule="evenodd"/><path d="M259 205.678 341.233 205.678 341.233 237.825 259 237.825Z" fill="#FFFFFF" fill-rule="evenodd"/><path d="M341.233 205.678 423.465 205.678 423.465 237.825 341.233 237.825Z" fill="#FFFFFF" fill-rule="evenodd"/><path d="M423.465 205.678 505.698 205.678 505.698 237.825 423.465 237.825Z" fill="#FFFFFF" fill-rule="evenodd"/><path d="M12.3017 237.825 94.5344 237.825 94.5344 269.972 12.3017 269.972Z" fill="#FFFFFF" fill-rule="evenodd"/><path d="M94.5344 237.825 176.767 237.825 176.767 269.972 94.5344 269.972Z" fill="#FFFFFF" fill-rule="evenodd"/><path d="M176.767 237.825 259 237.825 259 269.972 176.767 269.972Z" fill="#FFFFFF" fill-rule="evenodd"/><path d="M259 237.825 341.233 237.825 341.233 269.972 259 269.972Z" fill="#FFFFFF" fill-rule="evenodd"/><path d="M341.233 237.825 423.465 237.825 423.465 269.972 341.233 269.972Z" fill="#FFFFFF" fill-rule="evenodd"/><path d="M423.465 237.825 505.698 237.825 505.698 269.972 423.465 269.972Z" fill="#FFFFFF" fill-rule="evenodd"/><path d="M12.3017 269.972 94.5344 269.972 94.5344 302.119 12.3017 302.119Z" fill="#FFFFFF" fill-rule="evenodd"/><path d="M94.5344 269.972 176.767 269.972 176.767 302.119 94.5344 302.119Z" fill="#FFFFFF" fill-rule="evenodd"/><path d="M176.767 269.972 259 269.972 259 302.119 176.767 302.119Z" fill="#FFFFFF" fill-rule="evenodd"/><path d="M259 269.972 341.233 269.972 341.233 302.119 259 302.119Z" fill="#FFFFFF" fill-rule="evenodd"/><path d="M341.233 269.972 423.465 269.972 423.465 302.119 341.233 302.119Z" fill="#FFFFFF" fill-rule="evenodd"/><path d="M423.465 269.972 505.698 269.972 505.698 302.119 423.465 302.119Z" fill="#FFFFFF" fill-rule="evenodd"/><path d="M12.3017 302.119 94.5344 302.119 94.5344 334.266 12.3017 334.266Z" fill="#FFFFFF" fill-rule="evenodd"/><path d="M94.5344 302.119 176.767 302.119 176.767 334.266 94.5344 334.266Z" fill="#FFFFFF" fill-rule="evenodd"/><path d="M176.767 302.119 259 302.119 259 334.266 176.767 334.266Z" fill="#FFFFFF" fill-rule="evenodd"/><path d="M259 302.119 341.233 302.119 341.233 334.266 259 334.266Z" fill="#FFFFFF" fill-rule="evenodd"/><path d="M341.233 302.119 423.465 302.119 423.465 334.266 341.233 334.266Z" fill="#FFFFFF" fill-rule="evenodd"/><path d="M423.465 302.119 505.698 302.119 505.698 334.266 423.465 334.266Z" fill="#FFFFFF" fill-rule="evenodd"/><path d="M12.3017 334.266 94.5344 334.266 94.5344 366.413 12.3017 366.413Z" fill="#FFFFFF" fill-rule="evenodd"/><path d="M94.5344 334.266 176.767 334.266 176.767 366.413 94.5344 366.413Z" fill="#FFFFFF" fill-rule="evenodd"/><path d="M176.767 334.266 259 334.266 259 366.413 176.767 366.413Z" fill="#FFFFFF" fill-rule="evenodd"/><path d="M259 334.266 341.233 334.266 341.233 366.413 259 366.413Z" fill="#FFFFFF" fill-rule="evenodd"/><path d="M341.233 334.266 423.465 334.266 423.465 366.413 341.233 366.413Z" fill="#FFFFFF" fill-rule="evenodd"/><path d="M423.465 334.266 505.698 334.266 505.698 366.413 423.465 366.413Z" fill="#FFFFFF" fill-rule="evenodd"/><path d="M12.3017 366.413 94.5344 366.413 94.5344 398.56 12.3017 398.56Z" fill="#FFFFFF" fill-rule="evenodd"/><path d="M94.5344 366.413 176.767 366.413 176.767 398.56 94.5344 398.56Z" fill="#FFFFFF" fill-rule="evenodd"/><path d="M176.767 366.413 259 366.413 259 398.56 176.767 398.56Z" fill="#FFFFFF" fill-rule="evenodd"/><path d="M259 366.413 341.233 366.413 341.233 398.56 259 398.56Z" fill="#FFFFFF" fill-rule="evenodd"/><path d="M341.233 366.413 423.465 366.413 423.465 398.56 341.233 398.56Z" fill="#FFFFFF" fill-rule="evenodd"/><path d="M423.465 366.413 505.698 366.413 505.698 398.56 423.465 398.56Z" fill="#FFFFFF" fill-rule="evenodd"/><path d="M12.3017 398.56 94.5344 398.56 94.5344 430.707 12.3017 430.707Z" fill="#FFFFFF" fill-rule="evenodd"/><path d="M94.5344 398.56 176.767 398.56 176.767 430.707 94.5344 430.707Z" fill="#FFFFFF" fill-rule="evenodd"/><path d="M176.767 398.56 259 398.56 259 430.707 176.767 430.707Z" fill="#FFFFFF" fill-rule="evenodd"/><path d="M259 398.56 341.233 398.56 341.233 430.707 259 430.707Z" fill="#FFFFFF" fill-rule="evenodd"/><path d="M341.233 398.56 423.465 398.56 423.465 430.707 341.233 430.707Z" fill="#FFFFFF" fill-rule="evenodd"/><path d="M423.465 398.56 505.698 398.56 505.698 430.707 423.465 430.707Z" fill="#FFFFFF" fill-rule="evenodd"/><path d="M12.3017 430.707 94.5344 430.707 94.5344 462.854 12.3017 462.854Z" fill="#FFFFFF" fill-rule="evenodd"/><path d="M94.5344 430.707 176.767 430.707 176.767 462.854 94.5344 462.854Z" fill="#FFFFFF" fill-rule="evenodd"/><path d="M176.767 430.707 259 430.707 259 462.854 176.767 462.854Z" fill="#FFFFFF" fill-rule="evenodd"/><path d="M259 430.707 341.233 430.707 341.233 462.854 259 462.854Z" fill="#FFFFFF" fill-rule="evenodd"/><path d="M341.233 430.707 423.465 430.707 423.465 462.854 341.233 462.854Z" fill="#FFFFFF" fill-rule="evenodd"/><path d="M423.465 430.707 505.698 430.707 505.698 462.854 423.465 462.854Z" fill="#FFFFFF" fill-rule="evenodd"/><path d="M12.3017 462.854 94.5344 462.854 94.5344 495.002 12.3017 495.002Z" fill="#FFFFFF" fill-rule="evenodd"/><path d="M94.5344 462.854 176.767 462.854 176.767 495.002 94.5344 495.002Z" fill="#FFFFFF" fill-rule="evenodd"/><path d="M176.767 462.854 259 462.854 259 495.002 176.767 495.002Z" fill="#FFFFFF" fill-rule="evenodd"/><path d="M259 462.854 341.233 462.854 341.233 495.002 259 495.002Z" fill="#FFFFFF" fill-rule="evenodd"/><path d="M341.233 462.854 423.465 462.854 423.465 495.002 341.233 495.002Z" fill="#FFFFFF" fill-rule="evenodd"/><path d="M423.465 462.854 505.698 462.854 505.698 495.002 423.465 495.002Z" fill="#FFFFFF" fill-rule="evenodd"/><path d="M12.3017 495.002 94.5344 495.002 94.5344 527.149 12.3017 527.149Z" fill="#FFFFFF" fill-rule="evenodd"/><path d="M94.5344 495.002 176.767 495.002 176.767 527.149 94.5344 527.149Z" fill="#FFFFFF" fill-rule="evenodd"/><path d="M176.767 495.002 259 495.002 259 527.149 176.767 527.149Z" fill="#FFFFFF" fill-rule="evenodd"/><path d="M259 495.002 341.233 495.002 341.233 527.149 259 527.149Z" fill="#FFFFFF" fill-rule="evenodd"/><path d="M341.233 495.002 423.465 495.002 423.465 527.149 341.233 527.149Z" fill="#FFFFFF" fill-rule="evenodd"/><path d="M423.465 495.002 505.698 495.002 505.698 527.149 423.465 527.149Z" fill="#FFFFFF" fill-rule="evenodd"/><path d="M12.3017 527.149 94.5344 527.149 94.5344 559.296 12.3017 559.296Z" fill="#FFFFFF" fill-rule="evenodd"/><path d="M94.5344 527.149 176.767 527.149 176.767 559.296 94.5344 559.296Z" fill="#FFFFFF" fill-rule="evenodd"/><path d="M176.767 527.149 259 527.149 259 559.296 176.767 559.296Z" fill="#FFFFFF" fill-rule="evenodd"/><path d="M259 527.149 341.233 527.149 341.233 559.296 259 559.296Z" fill="#FFFFFF" fill-rule="evenodd"/><path d="M341.233 527.149 423.465 527.149 423.465 559.296 341.233 559.296Z" fill="#FFFFFF" fill-rule="evenodd"/><path d="M423.465 527.149 505.698 527.149 505.698 559.296 423.465 559.296Z" fill="#FFFFFF" fill-rule="evenodd"/><path d="M94.5344 16.0376 94.5344 559.962" stroke="#000000" stroke-width="1.33248" stroke-linejoin="round" stroke-miterlimit="10" fill="none" fill-rule="evenodd"/><path d="M176.767 16.0376 176.767 559.962" stroke="#000000" stroke-width="1.33248" stroke-linejoin="round" stroke-miterlimit="10" fill="none" fill-rule="evenodd"/><path d="M259 16.0376 259 559.962" stroke="#000000" stroke-width="1.33248" stroke-linejoin="round" stroke-miterlimit="10" fill="none" fill-rule="evenodd"/><path d="M341.233 16.0376 341.233 559.962" stroke="#000000" stroke-width="1.33248" stroke-linejoin="round" stroke-miterlimit="10" fill="none" fill-rule="evenodd"/><path d="M423.465 16.0376 423.465 559.962" stroke="#000000" stroke-width="1.33248" stroke-linejoin="round" stroke-miterlimit="10" fill="none" fill-rule="evenodd"/><path d="M11.6355 44.9424 506.364 44.9424" stroke="#000000" stroke-width="1.33248" stroke-linejoin="round" stroke-miterlimit="10" fill="none" fill-rule="evenodd"/><path d="M11.6355 77.0894 506.364 77.0894" stroke="#000000" stroke-width="1.33248" stroke-linejoin="round" stroke-miterlimit="10" fill="none" fill-rule="evenodd"/><path d="M11.6355 109.237 506.364 109.237" stroke="#000000" stroke-width="1.33248" stroke-linejoin="round" stroke-miterlimit="10" fill="none" fill-rule="evenodd"/><path d="M11.6355 141.384 506.364 141.384" stroke="#000000" stroke-width="1.33248" stroke-linejoin="round" stroke-miterlimit="10" fill="none" fill-rule="evenodd"/><path d="M11.6355 173.531 506.364 173.531" stroke="#000000" stroke-width="1.33248" stroke-linejoin="round" stroke-miterlimit="10" fill="none" fill-rule="evenodd"/><path d="M11.6355 205.678 506.364 205.678" stroke="#000000" stroke-width="1.33248" stroke-linejoin="round" stroke-miterlimit="10" fill="none" fill-rule="evenodd"/><path d="M11.6355 237.825 506.364 237.825" stroke="#000000" stroke-width="1.33248" stroke-linejoin="round" stroke-miterlimit="10" fill="none" fill-rule="evenodd"/><path d="M11.6355 269.972 506.364 269.972" stroke="#000000" stroke-width="1.33248" stroke-linejoin="round" stroke-miterlimit="10" fill="none" fill-rule="evenodd"/><path d="M11.6355 302.119 506.364 302.119" stroke="#000000" stroke-width="1.33248" stroke-linejoin="round" stroke-miterlimit="10" fill="none" fill-rule="evenodd"/><path d="M11.6355 334.266 506.364 334.266" stroke="#000000" stroke-width="1.33248" stroke-linejoin="round" stroke-miterlimit="10" fill="none" fill-rule="evenodd"/><path d="M11.6355 366.413 506.364 366.413" stroke="#000000" stroke-width="1.33248" stroke-linejoin="round" stroke-miterlimit="10" fill="none" fill-rule="evenodd"/><path d="M11.6355 398.56 506.364 398.56" stroke="#000000" stroke-width="1.33248" stroke-linejoin="round" stroke-miterlimit="10" fill="none" fill-rule="evenodd"/><path d="M11.6355 430.707 506.364 430.707" stroke="#000000" stroke-width="1.33248" stroke-linejoin="round" stroke-miterlimit="10" fill="none" fill-rule="evenodd"/><path d="M11.6355 462.854 506.364 462.854" stroke="#000000" stroke-width="1.33248" stroke-linejoin="round" stroke-miterlimit="10" fill="none" fill-rule="evenodd"/><path d="M11.6355 495.002 506.364 495.002" stroke="#000000" stroke-width="1.33248" stroke-linejoin="round" stroke-miterlimit="10" fill="none" fill-rule="evenodd"/><path d="M11.6355 527.149 506.364 527.149" stroke="#000000" stroke-width="1.33248" stroke-linejoin="round" stroke-miterlimit="10" fill="none" fill-rule="evenodd"/><path d="M12.3017 16.0376 12.3017 559.962" stroke="#000000" stroke-width="1.33248" stroke-linejoin="round" stroke-miterlimit="10" fill="none" fill-rule="evenodd"/><path d="M505.698 16.0376 505.698 559.962" stroke="#000000" stroke-width="1.33248" stroke-linejoin="round" stroke-miterlimit="10" fill="none" fill-rule="evenodd"/><path d="M11.6355 16.7043 506.364 16.7043" stroke="#000000" stroke-width="1.33248" stroke-linejoin="round" stroke-miterlimit="10" fill="none" fill-rule="evenodd"/><path d="M11.6355 559.296 506.364 559.296" stroke="#000000" stroke-width="1.33248" stroke-linejoin="round" stroke-miterlimit="10" fill="none" fill-rule="evenodd"/><text font-family="Calibri,Calibri_MSFontService,sans-serif" font-weight="400" font-size="11" transform="matrix(1 0 0 1.00064 19.1859 30)">BF16<tspan font-size="11" x="82.2328" y="0">BCOFF</tspan><tspan font-size="11" x="164.466" y="0">BC2</tspan><tspan font-size="11" x="246.698" y="0">BC4</tspan><tspan font-size="11" x="328.931" y="0">BC8</tspan><tspan font-size="11" x="411.164" y="0">BC16</tspan><tspan font-size="11" x="0" y="27.982">Warp0 CSR</tspan><tspan font-size="11" x="82.2328" y="27.982">Ch0 </tspan>–<tspan font-size="11" x="108.882" y="27.982">1 W</tspan><tspan font-size="11" x="164.466" y="27.982">Ch0 </tspan>–<tspan font-size="11" x="191.115" y="27.982">1 W</tspan><tspan font-size="11" x="246.698" y="27.982">Ch0 </tspan>–<tspan font-size="11" x="273.348" y="27.982">1 W</tspan><tspan font-size="11" x="328.931" y="27.982">Ch0 </tspan>–<tspan font-size="11" x="355.581" y="27.982">1 W</tspan><tspan font-size="11" x="411.164" y="27.982">Ch0 </tspan>–<tspan font-size="11" x="437.813" y="27.982">1 W</tspan><tspan font-size="11" x="0" y="60.9608">Warp1 CSR</tspan><tspan font-size="11" x="82.2328" y="60.9608">Ch2 </tspan>–<tspan font-size="11" x="108.882" y="60.9608">3 W</tspan><tspan font-size="11" x="164.466" y="60.9608">Ch0 </tspan>–<tspan font-size="11" x="191.115" y="60.9608">1 W</tspan><tspan font-size="11" x="246.698" y="60.9608">Ch0 </tspan>–<tspan font-size="11" x="273.348" y="60.9608">1 W</tspan><tspan font-size="11" x="328.931" y="60.9608">Ch0 </tspan>–<tspan font-size="11" x="355.581" y="60.9608">1 W</tspan><tspan font-size="11" x="411.164" y="60.9608">Ch0 </tspan>–<tspan font-size="11" x="437.813" y="60.9608">1 W</tspan><tspan font-size="11" x="0" y="92.9402">Warp2 CSR</tspan><tspan font-size="11" x="82.2328" y="92.9402">Ch4 </tspan>–<tspan font-size="11" x="108.882" y="92.9402">5 W</tspan><tspan font-size="11" x="164.466" y="92.9402">Ch2 </tspan>–<tspan font-size="11" x="191.115" y="92.9402">3 W</tspan><tspan font-size="11" x="246.698" y="92.9402">Ch0 </tspan>–<tspan font-size="11" x="273.348" y="92.9402">1 W</tspan><tspan font-size="11" x="328.931" y="92.9402">Ch0 </tspan>–<tspan font-size="11" x="355.581" y="92.9402">1 W</tspan><tspan font-size="11" x="411.164" y="92.9402">Ch0 </tspan>–<tspan font-size="11" x="437.813" y="92.9402">1 W</tspan><tspan font-size="11" x="0" y="124.92">Warp3 CSR</tspan><tspan font-size="11" x="82.2328" y="124.92">Ch6 </tspan>–<tspan font-size="11" x="108.882" y="124.92">7 W</tspan><tspan font-size="11" x="164.466" y="124.92">Ch2 </tspan>–<tspan font-size="11" x="191.115" y="124.92">3 W</tspan><tspan font-size="11" x="246.698" y="124.92">Ch0 </tspan>–<tspan font-size="11" x="273.348" y="124.92">1 W</tspan><tspan font-size="11" x="328.931" y="124.92">Ch0 </tspan>–<tspan font-size="11" x="355.581" y="124.92">1 W</tspan><tspan font-size="11" x="411.164" y="124.92">Ch0 </tspan>–<tspan font-size="11" x="437.813" y="124.92">1 W</tspan><tspan font-size="11" x="0" y="156.899">Warp4 CSR</tspan><tspan font-size="11" x="82.2328" y="156.899">Ch8 </tspan>–<tspan font-size="11" x="108.882" y="156.899">9 W</tspan><tspan font-size="11" x="164.466" y="156.899">Ch4 </tspan>–<tspan font-size="11" x="191.115" y="156.899">5 W</tspan><tspan font-size="11" x="246.698" y="156.899">Ch2 </tspan>–<tspan font-size="11" x="273.348" y="156.899">3 W</tspan><tspan font-size="11" x="328.931" y="156.899">Ch0 </tspan>–<tspan font-size="11" x="355.581" y="156.899">1 W</tspan><tspan font-size="11" x="411.164" y="156.899">Ch0 </tspan>–<tspan font-size="11" x="437.813" y="156.899">1 W</tspan><tspan font-size="11" x="0" y="188.878">Warp5 CSR</tspan><tspan font-size="11" x="82.2328" y="188.878">Ch10 </tspan><tspan font-size="11" x="106.55" y="188.878">–</tspan><tspan font-size="11" x="114.212" y="188.878">11 W</tspan><tspan font-size="11" x="164.466" y="188.878">Ch4 </tspan>–<tspan font-size="11" x="191.115" y="188.878">5 W</tspan><tspan font-size="11" x="246.698" y="188.878">Ch2 </tspan>–<tspan font-size="11" x="273.348" y="188.878">3 W</tspan><tspan font-size="11" x="328.931" y="188.878">Ch0 </tspan>–<tspan font-size="11" x="355.581" y="188.878">1 W</tspan><tspan font-size="11" x="411.164" y="188.878">Ch0 </tspan>–<tspan font-size="11" x="437.813" y="188.878">1 W</tspan><tspan font-size="11" x="0" y="220.858">Warp6 CSR</tspan><tspan font-size="11" x="82.2328" y="220.858">Ch12 </tspan><tspan font-size="11" x="106.55" y="220.858">–</tspan><tspan font-size="11" x="114.212" y="220.858">13 W</tspan><tspan font-size="11" x="164.466" y="220.858">Ch6 </tspan>–<tspan font-size="11" x="191.115" y="220.858">7 W</tspan><tspan font-size="11" x="246.698" y="220.858">Ch2 </tspan>–<tspan font-size="11" x="273.348" y="220.858">3 W</tspan><tspan font-size="11" x="328.931" y="220.858">Ch0 </tspan>–<tspan font-size="11" x="355.581" y="220.858">1 W</tspan><tspan font-size="11" x="411.164" y="220.858">Ch0 </tspan>–<tspan font-size="11" x="437.813" y="220.858">1 W</tspan><tspan font-size="11" x="0" y="253.837">Warp7 CSR</tspan><tspan font-size="11" x="82.2328" y="253.837">Ch14 </tspan><tspan font-size="11" x="106.55" y="253.837">–</tspan><tspan font-size="11" x="114.212" y="253.837">15 W</tspan><tspan font-size="11" x="164.466" y="253.837">Ch6 </tspan>–<tspan font-size="11" x="191.115" y="253.837">7 W</tspan><tspan font-size="11" x="246.698" y="253.837">Ch2 </tspan>–<tspan font-size="11" x="273.348" y="253.837">3 W</tspan><tspan font-size="11" x="328.931" y="253.837">Ch0 </tspan>–<tspan font-size="11" x="355.581" y="253.837">1 W</tspan><tspan font-size="11" x="411.164" y="253.837">Ch0 </tspan>–<tspan font-size="11" x="437.813" y="253.837">1 W</tspan><tspan font-size="11" x="0" y="285.816">Warp8 CSR</tspan><tspan font-size="11" x="82.2328" y="285.816">Ch16 </tspan><tspan font-size="11" x="106.55" y="285.816">–</tspan><tspan font-size="11" x="114.212" y="285.816">17 W</tspan><tspan font-size="11" x="164.466" y="285.816">Ch8 </tspan>–<tspan font-size="11" x="191.115" y="285.816">9 W</tspan><tspan font-size="11" x="246.698" y="285.816">Ch4 </tspan>–<tspan font-size="11" x="273.348" y="285.816">5 W</tspan><tspan font-size="11" x="328.931" y="285.816">Ch2 </tspan>–<tspan font-size="11" x="355.581" y="285.816">3 W</tspan><tspan font-size="11" x="411.164" y="285.816">Ch0 </tspan>–<tspan font-size="11" x="437.813" y="285.816">1 W</tspan><tspan font-size="11" x="0" y="317.796">Warp9 CSR</tspan><tspan font-size="11" x="82.2328" y="317.796">Ch18 </tspan><tspan font-size="11" x="106.55" y="317.796">–</tspan><tspan font-size="11" x="114.212" y="317.796">19 W</tspan><tspan font-size="11" x="164.466" y="317.796">Ch8 </tspan>–<tspan font-size="11" x="191.115" y="317.796">9 W</tspan><tspan font-size="11" x="246.698" y="317.796">Ch4 </tspan>–<tspan font-size="11" x="273.348" y="317.796">5 W</tspan><tspan font-size="11" x="328.931" y="317.796">Ch2 </tspan>–<tspan font-size="11" x="355.581" y="317.796">3 W</tspan><tspan font-size="11" x="411.164" y="317.796">Ch0 </tspan>–<tspan font-size="11" x="437.813" y="317.796">1 W</tspan><tspan font-size="11" x="0" y="349.775">Warp10 CSR</tspan><tspan font-size="11" x="82.2328" y="349.775">Ch20 </tspan><tspan font-size="11" x="106.55" y="349.775">–</tspan><tspan font-size="11" x="114.212" y="349.775">21 W</tspan><tspan font-size="11" x="164.466" y="349.775">Ch10 </tspan>–<tspan font-size="11" x="196.445" y="349.775">11 W</tspan><tspan font-size="11" x="246.698" y="349.775">Ch4 </tspan>–<tspan font-size="11" x="273.348" y="349.775">5 W</tspan><tspan font-size="11" x="328.931" y="349.775">Ch2 </tspan>–<tspan font-size="11" x="355.581" y="349.775">3 W</tspan><tspan font-size="11" x="411.164" y="349.775">Ch0 </tspan>–<tspan font-size="11" x="437.813" y="349.775">1 W</tspan><tspan font-size="11" x="0" y="381.754">Warp11 CSR</tspan><tspan font-size="11" x="82.2328" y="381.754">Ch22 </tspan><tspan font-size="11" x="106.55" y="381.754">–</tspan><tspan font-size="11" x="114.212" y="381.754">23 W</tspan><tspan font-size="11" x="164.466" y="381.754">Ch10 </tspan>–<tspan font-size="11" x="196.445" y="381.754">11 W</tspan><tspan font-size="11" x="246.698" y="381.754">Ch4 </tspan>–<tspan font-size="11" x="273.348" y="381.754">5 W</tspan><tspan font-size="11" x="328.931" y="381.754">Ch2 </tspan>–<tspan font-size="11" x="355.581" y="381.754">3 W</tspan><tspan font-size="11" x="411.164" y="381.754">Ch0 </tspan>–<tspan font-size="11" x="437.813" y="381.754">1 W</tspan><tspan font-size="11" x="0" y="413.734">Warp12 CSR</tspan><tspan font-size="11" x="82.2328" y="413.734">Ch24 </tspan><tspan font-size="11" x="106.55" y="413.734">–</tspan><tspan font-size="11" x="114.212" y="413.734">25 W</tspan><tspan font-size="11" x="164.466" y="413.734">Ch12 </tspan>–<tspan font-size="11" x="196.445" y="413.734">13 W</tspan><tspan font-size="11" x="246.698" y="413.734">Ch6 </tspan>–<tspan font-size="11" x="273.348" y="413.734">7 W</tspan><tspan font-size="11" x="328.931" y="413.734">Ch2 </tspan>–<tspan font-size="11" x="355.581" y="413.734">3 W</tspan><tspan font-size="11" x="411.164" y="413.734">Ch0 </tspan>–<tspan font-size="11" x="437.813" y="413.734">1 W</tspan><tspan font-size="11" x="0" y="446.713">Warp13 CSR</tspan><tspan font-size="11" x="82.2328" y="446.713">Ch26 </tspan><tspan font-size="11" x="106.55" y="446.713">–</tspan><tspan font-size="11" x="114.212" y="446.713">27 W</tspan><tspan font-size="11" x="164.466" y="446.713">Ch12 </tspan>–<tspan font-size="11" x="196.445" y="446.713">13 W</tspan><tspan font-size="11" x="246.698" y="446.713">Ch6 </tspan>–<tspan font-size="11" x="273.348" y="446.713">7 W</tspan><tspan font-size="11" x="328.931" y="446.713">Ch2 </tspan>–<tspan font-size="11" x="355.581" y="446.713">3 W</tspan><tspan font-size="11" x="411.164" y="446.713">Ch0 </tspan>–<tspan font-size="11" x="437.813" y="446.713">1 W</tspan><tspan font-size="11" x="0" y="478.692">Warp14 CSR</tspan><tspan font-size="11" x="82.2328" y="478.692">Ch28 </tspan><tspan font-size="11" x="106.55" y="478.692">–</tspan><tspan font-size="11" x="114.212" y="478.692">29 W</tspan><tspan font-size="11" x="164.466" y="478.692">Ch14 </tspan>–<tspan font-size="11" x="196.445" y="478.692">15 W</tspan><tspan font-size="11" x="246.698" y="478.692">Ch6 </tspan>–<tspan font-size="11" x="273.348" y="478.692">7 W</tspan><tspan font-size="11" x="328.931" y="478.692">Ch2 </tspan>–<tspan font-size="11" x="355.581" y="478.692">3 W</tspan><tspan font-size="11" x="411.164" y="478.692">Ch0 </tspan>–<tspan font-size="11" x="437.813" y="478.692">1 W</tspan><tspan font-size="11" x="0" y="510.671">Warp15 CSR</tspan><tspan font-size="11" x="82.2328" y="510.671">Ch30 </tspan><tspan font-size="11" x="106.55" y="510.671">–</tspan><tspan font-size="11" x="114.212" y="510.671">31 W</tspan><tspan font-size="11" x="164.466" y="510.671">Ch14 </tspan>–<tspan font-size="11" x="196.445" y="510.671">15 W</tspan><tspan font-size="11" x="246.698" y="510.671">Ch6 </tspan>–<tspan font-size="11" x="273.348" y="510.671">7 W</tspan><tspan font-size="11" x="328.931" y="510.671">Ch2 </tspan>–<tspan font-size="11" x="355.581" y="510.671">3 W</tspan><tspan font-size="11" x="411.164" y="510.671">Ch0 </tspan>–<tspan font-size="11" x="437.813" y="510.671">1 W</tspan></text></g></svg>