<svg id="SvgjsSvg1006" width="738.1000366210938" height="592.2125244140625" xmlns="http://www.w3.org/2000/svg" version="1.1" xmlns:xlink="http://www.w3.org/1999/xlink" xmlns:svgjs="http://svgjs.com/svgjs"><defs id="SvgjsDefs1007"><marker id="SvgjsMarker1016" markerWidth="14" markerHeight="10" refX="10" refY="5" viewBox="0 0 14 10" orient="auto" markerUnits="userSpaceOnUse" stroke-dasharray="0,0"><path id="SvgjsPath1017" d="M0,0 L14,5 L0,10 L0,0" fill="#323232" stroke="#323232" stroke-width="1"></path></marker><marker id="SvgjsMarker1020" markerWidth="14" markerHeight="10" refX="10" refY="5" viewBox="0 0 14 10" orient="auto" markerUnits="userSpaceOnUse" stroke-dasharray="0,0"><path id="SvgjsPath1021" d="M0,0 L14,5 L0,10 L0,0" fill="#323232" stroke="#323232" stroke-width="1"></path></marker><marker id="SvgjsMarker1072" markerWidth="14" markerHeight="10" refX="10" refY="5" viewBox="0 0 14 10" orient="auto" markerUnits="userSpaceOnUse" stroke-dasharray="0,0"><path id="SvgjsPath1073" d="M0,0 L14,5 L0,10 L0,0" fill="#323232" stroke="#323232" stroke-width="1"></path></marker><marker id="SvgjsMarker1076" markerWidth="14" markerHeight="10" refX="10" refY="5" viewBox="0 0 14 10" orient="auto" markerUnits="userSpaceOnUse" stroke-dasharray="0,0"><path id="SvgjsPath1077" d="M0,0 L14,5 L0,10 L0,0" fill="#323232" stroke="#323232" stroke-width="1"></path></marker><marker id="SvgjsMarker1080" markerWidth="14" markerHeight="10" refX="10" refY="5" viewBox="0 0 14 10" orient="auto" markerUnits="userSpaceOnUse" stroke-dasharray="0,0"><path id="SvgjsPath1081" d="M0,0 L14,5 L0,10 L0,0" fill="#323232" stroke="#323232" stroke-width="1"></path></marker><marker id="SvgjsMarker1084" markerWidth="14" markerHeight="10" refX="10" refY="5" viewBox="0 0 14 10" orient="auto" markerUnits="userSpaceOnUse" stroke-dasharray="0,0"><path id="SvgjsPath1085" d="M0,0 L14,5 L0,10 L0,0" fill="#323232" stroke="#323232" stroke-width="1"></path></marker><marker id="SvgjsMarker1094" markerWidth="14" markerHeight="10" refX="10" refY="5" viewBox="0 0 14 10" orient="auto" markerUnits="userSpaceOnUse" stroke-dasharray="0,0"><path id="SvgjsPath1095" d="M0,0 L14,5 L0,10 L0,0" fill="#323232" stroke="#323232" stroke-width="1"></path></marker><marker id="SvgjsMarker1098" markerWidth="14" markerHeight="10" refX="10" refY="5" viewBox="0 0 14 10" orient="auto" markerUnits="userSpaceOnUse" stroke-dasharray="0,0"><path id="SvgjsPath1099" d="M0,0 L14,5 L0,10 L0,0" fill="#323232" stroke="#323232" stroke-width="1"></path></marker></defs><g id="SvgjsG1008" transform="translate(74.10003662109378,119.6500015258789)"><path id="SvgjsPath1009" d="M 0 4Q 0 0 4 0L 265 0Q 269 0 269 4L 269 25Q 269 29 265 29L 4 29Q 0 29 0 25Z" stroke="rgba(50,50,50,1)" stroke-width="2" fill-opacity="1" fill="#ffffff"></path><g id="SvgjsG1010"><text id="SvgjsText1011" font-family="微软雅黑" text-anchor="middle" font-size="13px" width="249px" fill="#323232" font-weight="400" align="middle" lineHeight="125%" anchor="middle" family="微软雅黑" size="13px" weight="400" font-style="" opacity="1" y="3.875" transform="rotate(0)"><tspan id="SvgjsTspan1012" dy="16" x="134.5"><tspan id="SvgjsTspan1013" style="text-decoration:;">src-host-x86_64-unknown-linux-gnu.sui</tspan></tspan></text></g></g><g id="SvgjsG1014"><path id="SvgjsPath1015" d="M374.60003662109375 64.6500015258789L374.60003662109375 89.28083824859674L208.60003662109426 89.28083824859674L208.60003662109426 116.05000152587891" stroke="#323232" stroke-width="2" fill="none" marker-end="url(#SvgjsMarker1016)"></path></g><g id="SvgjsG1018"><path id="SvgjsPath1019" d="M374.60003662109375 64.6500015258789L374.60003662109375 89.28083824859675L538.6000366210944 89.28083824859675L538.6000366210944 116.05000152587891" stroke="#323232" stroke-width="2" fill="none" marker-end="url(#SvgjsMarker1020)"></path></g><g id="SvgjsG1022" transform="translate(197.54618131197395,64.6500015258789)"><path id="SvgjsPath1023" d="M 0 0L 53 0L 53 29L 0 29Z" stroke="none" fill="none"></path><g id="SvgjsG1024"><text id="SvgjsText1025" font-family="微软雅黑" text-anchor="middle" font-size="13px" width="53px" fill="#323232" font-weight="400" align="middle" lineHeight="125%" anchor="middle" family="微软雅黑" size="13px" weight="400" font-style="" opacity="1" y="3.875" transform="rotate(0)"><tspan id="SvgjsTspan1026" dy="16" x="26.5"><tspan id="SvgjsTspan1027" style="text-decoration:;">host</tspan></tspan></text></g></g><g id="SvgjsG1028" transform="translate(488.7026054186683,64.6500015258789)"><path id="SvgjsPath1029" d="M 0 0L 53 0L 53 29L 0 29Z" stroke="none" fill="none"></path><g id="SvgjsG1030"><text id="SvgjsText1031" font-family="微软雅黑" text-anchor="middle" font-size="13px" width="53px" fill="#323232" font-weight="400" align="middle" lineHeight="125%" anchor="middle" family="微软雅黑" size="13px" weight="400" font-style="" opacity="1" y="3.875" transform="rotate(0)"><tspan id="SvgjsTspan1032" dy="16" x="26.5"><tspan id="SvgjsTspan1033" style="text-decoration:;">device</tspan></tspan></text></g></g><g id="SvgjsG1034" transform="translate(304.60003662109375,34.650001525878906)"><path id="SvgjsPath1035" d="M 0 4Q 0 0 4 0L 136 0Q 140 0 140 4L 140 25Q 140 29 136 29L 4 29Q 0 29 0 25Z" stroke="rgba(50,50,50,1)" stroke-width="2" fill-opacity="1" fill="#ffffff"></path><g id="SvgjsG1036"><text id="SvgjsText1037" font-family="微软雅黑" text-anchor="middle" font-size="13px" width="120px" fill="#323232" font-weight="400" align="middle" lineHeight="125%" anchor="middle" family="微软雅黑" size="13px" weight="400" font-style="" opacity="1" y="3.875" transform="rotate(0)"><tspan id="SvgjsTspan1038" dy="16" x="70"><tspan id="SvgjsTspan1039" style="text-decoration:;">src.su</tspan></tspan></text></g></g><g id="SvgjsG1040" transform="translate(404.10003662109375,119.6500015258789)"><path id="SvgjsPath1041" d="M 0 4Q 0 0 4 0L 265 0Q 269 0 269 4L 269 25Q 269 29 265 29L 4 29Q 0 29 0 25Z" stroke="rgba(50,50,50,1)" stroke-width="2" fill-opacity="1" fill="#ffffff"></path><g id="SvgjsG1042"><text id="SvgjsText1043" font-family="微软雅黑" text-anchor="middle" font-size="13px" width="249px" fill="#323232" font-weight="400" align="middle" lineHeight="125%" anchor="middle" family="微软雅黑" size="13px" weight="400" font-style="" opacity="1" y="3.875" transform="rotate(0)"><tspan id="SvgjsTspan1044" dy="16" x="134.5"><tspan id="SvgjsTspan1045" style="text-decoration:;">src-supa-biren-biren-supa-br100.sui</tspan></tspan></text></g></g><g id="SvgjsG1046" transform="translate(74.10003662109378,209.6500015258789)"><path id="SvgjsPath1047" d="M 0 4Q 0 0 4 0L 265 0Q 269 0 269 4L 269 25Q 269 29 265 29L 4 29Q 0 29 0 25Z" stroke="rgba(50,50,50,1)" stroke-width="2" fill-opacity="1" fill="#ffffff"></path><g id="SvgjsG1048"><text id="SvgjsText1049" font-family="微软雅黑" text-anchor="middle" font-size="13px" width="249px" fill="#323232" font-weight="400" align="middle" lineHeight="125%" anchor="middle" family="微软雅黑" size="13px" weight="400" font-style="" opacity="1" y="3.875" transform="rotate(0)"><tspan id="SvgjsTspan1050" dy="16" x="134.5"><tspan id="SvgjsTspan1051" style="text-decoration:;">src-host-x86_64-unknown-linux-gnu.bc</tspan></tspan></text></g></g><g id="SvgjsG1052" transform="translate(404.10003662109375,209.6500015258789)"><path id="SvgjsPath1053" d="M 0 4Q 0 0 4 0L 265 0Q 269 0 269 4L 269 25Q 269 29 265 29L 4 29Q 0 29 0 25Z" stroke="rgba(50,50,50,1)" stroke-width="2" fill-opacity="1" fill="#ffffff"></path><g id="SvgjsG1054"><text id="SvgjsText1055" font-family="微软雅黑" text-anchor="middle" font-size="13px" width="249px" fill="#323232" font-weight="400" align="middle" lineHeight="125%" anchor="middle" family="微软雅黑" size="13px" weight="400" font-style="" opacity="1" y="3.875" transform="rotate(0)"><tspan id="SvgjsTspan1056" dy="16" x="134.5"><tspan id="SvgjsTspan1057" style="text-decoration:;">src-supa-biren-biren-supa-br100.o</tspan></tspan></text></g></g><g id="SvgjsG1058" transform="translate(74.10003662109378,298.6500015258789)"><path id="SvgjsPath1059" d="M 0 4Q 0 0 4 0L 265 0Q 269 0 269 4L 269 25Q 269 29 265 29L 4 29Q 0 29 0 25Z" stroke="rgba(50,50,50,1)" stroke-width="2" fill-opacity="1" fill="#ffffff"></path><g id="SvgjsG1060"><text id="SvgjsText1061" font-family="微软雅黑" text-anchor="middle" font-size="13px" width="249px" fill="#323232" font-weight="400" align="middle" lineHeight="125%" anchor="middle" family="微软雅黑" size="13px" weight="400" font-style="" opacity="1" y="3.875" transform="rotate(0)"><tspan id="SvgjsTspan1062" dy="16" x="134.5"><tspan id="SvgjsTspan1063" style="text-decoration:;">src-host-x86_64-unknown-linux-gnu.s</tspan></tspan></text></g></g><g id="SvgjsG1064" transform="translate(74.10003662109378,388.85793443656536)"><path id="SvgjsPath1065" d="M 0 4Q 0 0 4 0L 265 0Q 269 0 269 4L 269 25Q 269 29 265 29L 4 29Q 0 29 0 25Z" stroke="rgba(50,50,50,1)" stroke-width="2" fill-opacity="1" fill="#ffffff"></path><g id="SvgjsG1066"><text id="SvgjsText1067" font-family="微软雅黑" text-anchor="middle" font-size="13px" width="249px" fill="#323232" font-weight="400" align="middle" lineHeight="125%" anchor="middle" family="微软雅黑" size="13px" weight="400" font-style="" opacity="1" y="3.875" transform="rotate(0)"><tspan id="SvgjsTspan1068" dy="16" x="134.5"><tspan id="SvgjsTspan1069" style="text-decoration:;">src-host-x86_64-unknown-linux-gnu.o</tspan></tspan></text></g></g><g id="SvgjsG1070"><path id="SvgjsPath1071" d="M208.60003662109364 149.6500015258789L208.60003662109364 178.72085764770014L208.60003662109364 178.72085764770014L208.60003662109364 206.0500015258789" stroke="#323232" stroke-width="2" fill="none" marker-end="url(#SvgjsMarker1072)"></path></g><g id="SvgjsG1074"><path id="SvgjsPath1075" d="M208.60003662109386 239.6500015258789L208.60003662109386 268.6500015258789L208.60003662109386 268.6500015258789L208.60003662109386 295.0500015258789" stroke="#323232" stroke-width="2" fill="none" marker-end="url(#SvgjsMarker1076)"></path></g><g id="SvgjsG1078"><path id="SvgjsPath1079" d="M208.60003662109375 328.6500015258789L208.60003662109375 358.2539679812221L208.60003662109375 358.2539679812221L208.60003662109375 385.25793443656534" stroke="#323232" stroke-width="2" fill="none" marker-end="url(#SvgjsMarker1080)"></path></g><g id="SvgjsG1082"><path id="SvgjsPath1083" d="M538.6000366210934 149.6500015258789L538.6000366210934 179.1500015258789L538.6000366210934 179.1500015258789L538.6000366210934 206.0500015258789" stroke="#323232" stroke-width="2" fill="none" marker-end="url(#SvgjsMarker1084)"></path></g><g id="SvgjsG1086" transform="translate(304.60003662109375,538.2192227804574)"><path id="SvgjsPath1087" d="M 0 4Q 0 0 4 0L 136 0Q 140 0 140 4L 140 25Q 140 29 136 29L 4 29Q 0 29 0 25Z" stroke="rgba(50,50,50,1)" stroke-width="2" fill-opacity="1" fill="#ffffff"></path><g id="SvgjsG1088"><text id="SvgjsText1089" font-family="微软雅黑" text-anchor="middle" font-size="13px" width="120px" fill="#323232" font-weight="400" align="middle" lineHeight="125%" anchor="middle" family="微软雅黑" size="13px" weight="400" font-style="" opacity="1" y="3.875" transform="rotate(0)"><tspan id="SvgjsTspan1090" dy="16" x="70"><tspan id="SvgjsTspan1091" style="text-decoration:;">src.o</tspan></tspan></text></g></g><g id="SvgjsG1092"><path id="SvgjsPath1093" d="M208.60003662109375 418.85793443656536L208.60003662109375 478.03857860851133L374.60003662109375 478.03857860851133L374.60003662109375 534.6192227804573" stroke="#323232" stroke-width="2" fill="none" marker-end="url(#SvgjsMarker1094)"></path></g><g id="SvgjsG1096"><path id="SvgjsPath1097" d="M538.6000366210938 239.6500015258789L538.6000366210938 388.43461215316813L374.60003662109375 388.43461215316813L374.60003662109375 534.6192227804573" stroke="#323232" stroke-width="2" fill="none" marker-end="url(#SvgjsMarker1098)"></path></g><g id="SvgjsG1100" transform="translate(67.10003662109375,86.1500015258789)"><path id="SvgjsPath1101" d="M 0 0L 123 0L 123 40L 0 40Z" stroke="none" fill="none"></path><g id="SvgjsG1102"><text id="SvgjsText1103" font-family="微软雅黑" text-anchor="end" font-size="12px" width="123px" fill="#323232" font-weight="400" align="middle" lineHeight="125%" anchor="end" family="微软雅黑" size="12px" weight="400" font-style="" opacity="1" y="10" transform="rotate(0)"><tspan id="SvgjsTspan1104" dy="15" x="123"><tspan id="SvgjsTspan1105" style="text-decoration:;">--supa-host-only -E</tspan></tspan></text></g></g><g id="SvgjsG1106" transform="translate(67.10003662109378,266.1500015258789)"><path id="SvgjsPath1107" d="M 0 0L 123 0L 123 40L 0 40Z" stroke="none" fill="none"></path><g id="SvgjsG1108"><text id="SvgjsText1109" font-family="微软雅黑" text-anchor="end" font-size="12px" width="123px" fill="#323232" font-weight="400" align="middle" lineHeight="125%" anchor="end" family="微软雅黑" size="12px" weight="400" font-style="" opacity="1" y="10" transform="rotate(0)"><tspan id="SvgjsTspan1110" dy="15" x="123"><tspan id="SvgjsTspan1111" style="text-decoration:;">--supa-host-only -S</tspan></tspan></text></g></g><g id="SvgjsG1112" transform="translate(67.10003662109375,356.1500015258789)"><path id="SvgjsPath1113" d="M 0 0L 123 0L 123 40L 0 40Z" stroke="none" fill="none"></path><g id="SvgjsG1114"><text id="SvgjsText1115" font-family="微软雅黑" text-anchor="end" font-size="12px" width="123px" fill="#323232" font-weight="400" align="middle" lineHeight="125%" anchor="end" family="微软雅黑" size="12px" weight="400" font-style="" opacity="1" y="10" transform="rotate(0)"><tspan id="SvgjsTspan1116" dy="15" x="123"><tspan id="SvgjsTspan1117" style="text-decoration:;">--supa-host-only -c</tspan></tspan></text></g></g><g id="SvgjsG1118" transform="translate(560.6000366210938,86.1500015258789)"><path id="SvgjsPath1119" d="M 0 0L 140 0L 140 40L 0 40Z" stroke="none" fill="none"></path><g id="SvgjsG1120"><text id="SvgjsText1121" font-family="微软雅黑" text-anchor="start" font-size="12px" width="140px" fill="#323232" font-weight="400" align="middle" lineHeight="125%" anchor="start" family="微软雅黑" size="12px" weight="400" font-style="" opacity="1" y="10" transform="rotate(0)"><tspan id="SvgjsTspan1122" dy="15" x="0"><tspan id="SvgjsTspan1123" style="text-decoration:;">--supa-device-only -E</tspan></tspan></text></g></g><g id="SvgjsG1124" transform="translate(366.47503566741943,501.7750053405762)"><path id="SvgjsPath1125" d="M 0 0L 148.75 0L 148.75 23.29086200667564L 0 23.29086200667564Z" stroke="none" fill="none"></path><g id="SvgjsG1126"><text id="SvgjsText1127" font-family="微软雅黑" text-anchor="middle" font-size="12px" width="149px" fill="#323232" font-weight="400" align="middle" lineHeight="125%" anchor="middle" family="微软雅黑" size="12px" weight="400" font-style="" opacity="1" y="1.6454310033378192" transform="rotate(0)"><tspan id="SvgjsTspan1128" dy="15" x="74.5"><tspan id="SvgjsTspan1129" style="text-decoration:;">clang-offload-bundler</tspan></tspan></text></g></g><g id="SvgjsG1130" transform="translate(220.10003662109375,471.0658673472518)"><path id="SvgjsPath1131" d="M 0 0L 123 0L 123 40L 0 40Z" stroke="none" fill="none"></path><g id="SvgjsG1132"><text id="SvgjsText1133" font-family="微软雅黑" text-anchor="middle" font-size="12px" width="123px" fill="#323232" font-weight="400" align="middle" lineHeight="125%" anchor="middle" family="微软雅黑" size="12px" weight="400" font-style="" opacity="1" y="10" transform="rotate(0)"><tspan id="SvgjsTspan1134" dy="15" x="61.5"><tspan id="SvgjsTspan1135" style="text-decoration:;">object file</tspan></tspan></text></g></g><g id="SvgjsG1136" transform="translate(396.22503566741943,383.35793443656536)"><path id="SvgjsPath1137" d="M 0 0L 123 0L 123 40L 0 40Z" stroke="none" fill="none"></path><g id="SvgjsG1138"><text id="SvgjsText1139" font-family="微软雅黑" text-anchor="middle" font-size="12px" width="123px" fill="#323232" font-weight="400" align="middle" lineHeight="125%" anchor="middle" family="微软雅黑" size="12px" weight="400" font-style="" opacity="1" y="10" transform="rotate(0)"><tspan id="SvgjsTspan1140" dy="15" x="61.5"><tspan id="SvgjsTspan1141" style="text-decoration:;">llvm bitcode file</tspan></tspan></text></g></g><g id="SvgjsG1142" transform="translate(548.1000366210938,258.6500015258789)"><path id="SvgjsPath1143" d="M 0 0L 165 0L 165 29L 0 29Z" stroke="none" fill="none"></path><g id="SvgjsG1144"><text id="SvgjsText1145" font-family="微软雅黑" text-anchor="start" font-size="12px" width="165px" fill="#323232" font-weight="400" align="middle" lineHeight="125%" anchor="start" family="微软雅黑" size="12px" weight="400" font-style="" opacity="1" y="4.5" transform="rotate(0)"><tspan id="SvgjsTspan1146" dy="15" x="0"><tspan id="SvgjsTspan1147" style="text-decoration:;">(llvm bitcode with suffix .o)</tspan></tspan></text></g></g><g id="SvgjsG1148" transform="translate(25.000045776367188,176.1500015258789)"><path id="SvgjsPath1149" d="M 0 0L 165.09999084472656 0L 165.09999084472656 40L 0 40Z" stroke="none" fill="none"></path><g id="SvgjsG1150"><text id="SvgjsText1151" font-family="微软雅黑" text-anchor="end" font-size="12px" width="166px" fill="#323232" font-weight="400" align="middle" lineHeight="125%" anchor="end" family="微软雅黑" size="12px" weight="400" font-style="" opacity="1" y="10" transform="rotate(0)"><tspan id="SvgjsTspan1152" dy="15" x="166"><tspan id="SvgjsTspan1153" style="text-decoration:;">--supa-host-only -emit-llvm</tspan></tspan></text></g></g><g id="SvgjsG1154" transform="translate(560.6000366210938,176.1500015258789)"><path id="SvgjsPath1155" d="M 0 0L 140 0L 140 40L 0 40Z" stroke="none" fill="none"></path><g id="SvgjsG1156"><text id="SvgjsText1157" font-family="微软雅黑" text-anchor="start" font-size="12px" width="140px" fill="#323232" font-weight="400" align="middle" lineHeight="125%" anchor="start" family="微软雅黑" size="12px" weight="400" font-style="" opacity="1" y="10" transform="rotate(0)"><tspan id="SvgjsTspan1158" dy="15" x="0"><tspan id="SvgjsTspan1159" style="text-decoration:;">--supa-device-only -c</tspan></tspan></text></g></g><g id="SvgjsG1160" transform="translate(74.10003662109378,25.011545034555326)"><path id="SvgjsPath1161" d="M 0 0L 214 0L 214 48.27691298264716L 0 48.27691298264716Z" stroke="none" fill="none"></path><g id="SvgjsG1162"><text id="SvgjsText1163" font-family="微软雅黑" text-anchor="start" font-size="18px" width="214px" fill="#323232" font-weight="700" align="middle" lineHeight="125%" anchor="start" family="微软雅黑" size="18px" weight="700" font-style="" opacity="1" y="-2.6115435086764194" transform="rotate(0)"><tspan id="SvgjsTspan1164" dy="22" x="0"><tspan id="SvgjsTspan1165" style="text-decoration:;">编译阶段</tspan></tspan><tspan id="SvgjsTspan1166" dy="22" x="0"><tspan id="SvgjsTspan1167" style="text-decoration:;">brcc -x supa src.su</tspan></tspan></text></g></g><g id="SvgjsG1168" transform="translate(548.1000366210938,238.6500015258789)"><path id="SvgjsPath1169" d="M 0 0L 165 0L 165 29L 0 29Z" stroke="none" fill="none"></path><g id="SvgjsG1170"><text id="SvgjsText1171" font-family="微软雅黑" text-anchor="start" font-size="12px" width="165px" fill="#323232" font-weight="400" align="middle" lineHeight="125%" anchor="start" family="微软雅黑" size="12px" weight="400" font-style="" opacity="1" y="4.5" transform="rotate(0)"><tspan id="SvgjsTspan1172" dy="15" x="0"><tspan id="SvgjsTspan1173" style="text-decoration:;">(supa device library linked)</tspan></tspan></text></g></g></svg>