<svg width="432" height="413" xmlns="http://www.w3.org/2000/svg" xmlns:xlink="http://www.w3.org/1999/xlink" overflow="hidden"><defs><clipPath id="clip0"><rect x="0" y="0" width="432" height="413"/></clipPath></defs><g clip-path="url(#clip0)"><rect x="0" y="0" width="432" height="413.167" fill="#FFFFFF"/><rect x="12.5001" y="192.578" width="405" height="60.0242" stroke="#000000" stroke-width="1.33333" stroke-miterlimit="8" stroke-dasharray="5.33333 4" fill="none"/><text font-family="Times New Roman,Times New Roman_MSFontService,sans-serif" font-style="italic" font-weight="700" font-size="16" transform="matrix(1 0 0 1.0004 21.8452 228)">suMemArchType</text><text font-family="Times New Roman,Times New Roman_MSFontService,sans-serif" font-style="italic" font-weight="700" font-size="16" transform="matrix(1 0 0 1.0004 135.085 228)">=UMA</text><rect x="155.5" y="86.535" width="128" height="65.0262" stroke="#000000" stroke-width="1.33333" stroke-miterlimit="8" fill="#FFFFFF"/><text font-family="Times New Roman,Times New Roman_MSFontService,sans-serif" font-weight="700" font-size="16" transform="matrix(1 0 0 1.0004 164.991 115)">MmvMatrix3D/</text><text font-family="Times New Roman,Times New Roman_MSFontService,sans-serif" font-weight="700" font-size="16" transform="matrix(1 0 0 1.0004 176.991 135)">MmvMatrix</text><rect x="237.5" y="201.581" width="171" height="38.0153" stroke="#000000" stroke-width="1.33333" stroke-miterlimit="8" fill="#FFF2CC"/><text font-family="Times New Roman,Times New Roman_MSFontService,sans-serif" font-weight="700" font-size="16" transform="matrix(1 0 0 1.0004 251.968 216)">UmaMmvMatrix3D/</text><text font-family="Times New Roman,Times New Roman_MSFontService,sans-serif" font-weight="700" font-size="16" transform="matrix(1 0 0 1.0004 263.968 236)">UmaMmvMatrix</text><rect x="237.5" y="274.611" width="171" height="38.0154" stroke="#000000" stroke-width="1.33333" stroke-miterlimit="8" fill="#FFF2CC"/><text font-family="Times New Roman,Times New Roman_MSFontService,sans-serif" font-weight="700" font-size="16" transform="matrix(1 0 0 1.0004 247.152 289)">NumaMmvMatrix3D/</text><text font-family="Times New Roman,Times New Roman_MSFontService,sans-serif" font-weight="700" font-size="16" transform="matrix(1 0 0 1.0004 259.152 309)">NumaMmvMatrix</text><rect x="237.5" y="351.642" width="171" height="39.0157" stroke="#000000" stroke-width="1.33333" stroke-miterlimit="8" fill="#FFF2CC"/><text font-family="Times New Roman,Times New Roman_MSFontService,sans-serif" font-weight="700" font-size="16" transform="matrix(1 0 0 1.0004 247.568 367)">Uma4MmvMatrix3D/</text><text font-family="Times New Roman,Times New Roman_MSFontService,sans-serif" font-weight="700" font-size="16" transform="matrix(1 0 0 1.0004 259.568 387)">Uma4MmvMatrix</text><path d="M237.612 222.068 218 222.068 218 165.067 221 165.067 221 220.567 219.5 219.067 237.612 219.067ZM212 166.567 219.5 151.561 227 166.567Z" fill="#4472C4"/><path d="M236.812 295.01 218 295.01 218 165.067 221 165.067 221 293.509 219.5 292.009 236.812 292.009ZM212 166.567 219.5 151.561 227 166.567Z" fill="#4472C4"/><path d="M236.812 372.27 218 372.27 218 165.067 221 165.067 221 370.77 219.5 369.269 236.812 369.269ZM212 166.567 219.5 151.561 227 166.567Z" fill="#4472C4"/><text font-family="DengXian,DengXian_MSFontService,sans-serif" font-weight="700" font-size="19" transform="matrix(1 0 0 1.0004 36.9118 80)">张量形状层</text><rect x="12.5001" y="263.606" width="405" height="60.0242" stroke="#000000" stroke-width="1.33333" stroke-miterlimit="8" stroke-dasharray="5.33333 4" fill="none"/><text font-family="Times New Roman,Times New Roman_MSFontService,sans-serif" font-style="italic" font-weight="700" font-size="16" transform="matrix(1 0 0 1.0004 21.8452 298)">suMemArchType</text><text font-family="Times New Roman,Times New Roman_MSFontService,sans-serif" font-style="italic" font-weight="700" font-size="16" transform="matrix(1 0 0 1.0004 135.085 298)">=NUMA</text><rect x="12.5001" y="340.638" width="405" height="60.0242" stroke="#000000" stroke-width="1.33333" stroke-miterlimit="8" stroke-dasharray="5.33333 4" fill="none"/><text font-family="Times New Roman,Times New Roman_MSFontService,sans-serif" font-style="italic" font-weight="700" font-size="16" transform="matrix(1 0 0 1.0004 21.8454 375)">suMemArchType</text><text font-family="Times New Roman,Times New Roman_MSFontService,sans-serif" font-style="italic" font-weight="700" font-size="16" transform="matrix(1 0 0 1.0004 135.085 375)">=UMA4</text><text font-family="DengXian,DengXian_MSFontService,sans-serif" font-weight="700" font-size="19" transform="matrix(1 0 0 1.0004 72.0201 184)">特化</text><path d="M0.0192551-1.49988 9.46888-1.37856 9.43037 1.62119-0.0192551 1.49988ZM8.5611-7.47543 22.9054 1.21312 7.34798 7.47543Z" fill="#4472C4" transform="matrix(-1.83697e-16 -1.0004 -1 1.83771e-16 219.713 86.4403)"/><rect x="155.5" y="8.50348" width="126" height="55.0222" stroke="#000000" stroke-width="1.33333" stroke-miterlimit="8" fill="#FFFFFF"/><text font-family="Times New Roman,Times New Roman_MSFontService,sans-serif" font-weight="700" font-size="16" transform="matrix(1 0 0 1.0004 182.028 31)">Matrix3D/</text><text font-family="Times New Roman,Times New Roman_MSFontService,sans-serif" font-weight="700" font-size="16" transform="matrix(1 0 0 1.0004 194.028 51)">Matrix</text></g></svg>