<svg width="912" height="480" xmlns="http://www.w3.org/2000/svg" xmlns:xlink="http://www.w3.org/1999/xlink" overflow="hidden"><defs><clipPath id="clip0"><rect x="0" y="0" width="912" height="480"/></clipPath></defs><g clip-path="url(#clip0)"><rect x="0" y="0" width="912" height="480" fill="#FFFFFF"/><rect x="0" y="20.4973" width="201.503" height="234.503" fill="#FFF2CC" transform="matrix(-1 0 0 1 280.5 130.5)"/><path d="M201.503 20.4973 222 0 222 234.503 201.503 255Z" fill="#CDC3A4" fill-rule="evenodd" transform="matrix(-1 0 0 1 280.5 130.5)"/><path d="M0 20.4973 20.4973 0 222 0 201.503 20.4973Z" fill="#FFF5D6" fill-rule="evenodd" transform="matrix(-1 0 0 1 280.5 130.5)"/><path d="M0 20.4973 20.4973 0 222 0 222 234.503 201.503 255 0 255ZM0 20.4973 201.503 20.4973 222 0M201.503 20.4973 201.503 255" stroke="#000000" stroke-width="1.33333" stroke-miterlimit="8" fill="none" fill-rule="evenodd" transform="matrix(-1 0 0 1 280.5 130.5)"/><path d="M144.387 150.949 124.5 130.5" stroke="#000000" stroke-miterlimit="8" fill="none" fill-rule="evenodd"/><path d="M211.387 150.949 191.5 130.5" stroke="#000000" stroke-miterlimit="8" fill="none" fill-rule="evenodd"/><path d="M78.3874 189.949 58.5 169.5" stroke="#000000" stroke-miterlimit="8" fill="none" fill-rule="evenodd"/><path d="M78.7801 228.353 58.5001 207.5" stroke="#000000" stroke-miterlimit="8" fill="none" fill-rule="evenodd"/><path d="M78.355 267.517 58.5 247.5" stroke="#000000" stroke-miterlimit="8" fill="none" fill-rule="evenodd"/><path d="M78.7985 306.344 59.5001 286.5" stroke="#000000" stroke-miterlimit="8" fill="none" fill-rule="evenodd"/><rect x="0" y="20.4972" width="201.503" height="233.503" fill="#FFF2CC" transform="matrix(-1 0 0 1 301.5 151.5)"/><path d="M201.503 20.4972 222 0 222 233.503 201.503 254Z" fill="#CDC3A4" fill-rule="evenodd" transform="matrix(-1 0 0 1 301.5 151.5)"/><path d="M0 20.4972 20.4972 0 222 0 201.503 20.4972Z" fill="#FFF5D6" fill-rule="evenodd" transform="matrix(-1 0 0 1 301.5 151.5)"/><path d="M0 20.4972 20.4972 0 222 0 222 233.503 201.503 254 0 254ZM0 20.4972 201.503 20.4972 222 0M201.503 20.4972 201.503 254" stroke="#000000" stroke-width="1.33333" stroke-miterlimit="8" fill="none" fill-rule="evenodd" transform="matrix(-1 0 0 1 301.5 151.5)"/><path d="M164.387 171.949 144.5 151.5" stroke="#000000" stroke-miterlimit="8" fill="none" fill-rule="evenodd"/><path d="M232.387 171.949 212.5 151.5" stroke="#000000" stroke-miterlimit="8" fill="none" fill-rule="evenodd"/><path d="M98.3874 210.949 78.5 190.5" stroke="#000000" stroke-miterlimit="8" fill="none" fill-rule="evenodd"/><path d="M99.7801 249.353 79.5001 228.5" stroke="#000000" stroke-miterlimit="8" fill="none" fill-rule="evenodd"/><path d="M99.355 288.517 79.5 268.5" stroke="#000000" stroke-miterlimit="8" fill="none" fill-rule="evenodd"/><path d="M98.7985 327.344 79.5001 307.5" stroke="#000000" stroke-miterlimit="8" fill="none" fill-rule="evenodd"/><rect x="0" y="20.4973" width="201.503" height="234.503" fill="#FFF2CC" transform="matrix(-1 0 0 1 321.5 171.5)"/><path d="M201.503 20.4973 222 0 222 234.503 201.503 255Z" fill="#CDC3A4" fill-rule="evenodd" transform="matrix(-1 0 0 1 321.5 171.5)"/><path d="M0 20.4973 20.4973 0 222 0 201.503 20.4973Z" fill="#FFF5D6" fill-rule="evenodd" transform="matrix(-1 0 0 1 321.5 171.5)"/><path d="M0 20.4973 20.4973 0 222 0 222 234.503 201.503 255 0 255ZM0 20.4973 201.503 20.4973 222 0M201.503 20.4973 201.503 255" stroke="#000000" stroke-width="1.33333" stroke-miterlimit="8" fill="none" fill-rule="evenodd" transform="matrix(-1 0 0 1 321.5 171.5)"/><path d="M185.387 191.949 165.5 171.5" stroke="#000000" stroke-miterlimit="8" fill="none" fill-rule="evenodd"/><path d="M252.387 191.949 232.5 171.5" stroke="#000000" stroke-miterlimit="8" fill="none" fill-rule="evenodd"/><path d="M119.387 230.949 99.5 210.5" stroke="#000000" stroke-miterlimit="8" fill="none" fill-rule="evenodd"/><path d="M119.78 270.353 99.5001 249.5" stroke="#000000" stroke-miterlimit="8" fill="none" fill-rule="evenodd"/><path d="M119.355 308.517 99.5 288.5" stroke="#000000" stroke-miterlimit="8" fill="none" fill-rule="evenodd"/><path d="M119.799 347.344 100.5 327.5" stroke="#000000" stroke-miterlimit="8" fill="none" fill-rule="evenodd"/><rect x="0" y="20.405" width="200.595" height="233.595" fill="#FFF2CC" transform="matrix(-1 0 0 1 341.5 192.5)"/><path d="M200.595 20.405 221 0 221 233.595 200.595 254Z" fill="#CDC3A4" fill-rule="evenodd" transform="matrix(-1 0 0 1 341.5 192.5)"/><path d="M0 20.405 20.405 0 221 0 200.595 20.405Z" fill="#FFF5D6" fill-rule="evenodd" transform="matrix(-1 0 0 1 341.5 192.5)"/><path d="M0 20.405 20.405 0 221 0 221 233.595 200.595 254 0 254ZM0 20.405 200.595 20.405 221 0M200.595 20.405 200.595 254" stroke="#000000" stroke-width="1.33333" stroke-miterlimit="8" fill="none" fill-rule="evenodd" transform="matrix(-1 0 0 1 341.5 192.5)"/><path d="M205.387 212.949 185.5 192.5" stroke="#000000" stroke-miterlimit="8" fill="none" fill-rule="evenodd"/><path d="M273.387 212.949 253.5 192.5" stroke="#000000" stroke-miterlimit="8" fill="none" fill-rule="evenodd"/><path d="M139.387 251.949 119.5 231.5" stroke="#000000" stroke-miterlimit="8" fill="none" fill-rule="evenodd"/><path d="M140.78 290.353 120.5 269.5" stroke="#000000" stroke-miterlimit="8" fill="none" fill-rule="evenodd"/><path d="M140.355 329.517 120.5 309.5" stroke="#000000" stroke-miterlimit="8" fill="none" fill-rule="evenodd"/><path d="M139.799 368.344 120.5 348.5" stroke="#000000" stroke-miterlimit="8" fill="none" fill-rule="evenodd"/><rect x="0" y="20.4973" width="201.503" height="234.503" fill="#FFF2CC" transform="matrix(-1 0 0 1 362.5 212.5)"/><path d="M201.503 20.4973 222 0 222 234.503 201.503 255Z" fill="#CDC3A4" fill-rule="evenodd" transform="matrix(-1 0 0 1 362.5 212.5)"/><path d="M0 20.4973 20.4973 0 222 0 201.503 20.4973Z" fill="#FFF5D6" fill-rule="evenodd" transform="matrix(-1 0 0 1 362.5 212.5)"/><path d="M0 20.4973 20.4973 0 222 0 222 234.503 201.503 255 0 255ZM0 20.4973 201.503 20.4973 222 0M201.503 20.4973 201.503 255" stroke="#000000" stroke-width="1.33333" stroke-miterlimit="8" fill="none" fill-rule="evenodd" transform="matrix(-1 0 0 1 362.5 212.5)"/><path d="M226.387 232.949 206.5 212.5" stroke="#000000" stroke-miterlimit="8" fill="none" fill-rule="evenodd"/><path d="M293.387 232.949 273.5 212.5" stroke="#000000" stroke-miterlimit="8" fill="none" fill-rule="evenodd"/><path d="M160.387 271.949 140.5 251.5" stroke="#000000" stroke-miterlimit="8" fill="none" fill-rule="evenodd"/><path d="M160.78 311.353 140.5 290.5" stroke="#000000" stroke-miterlimit="8" fill="none" fill-rule="evenodd"/><path d="M160.355 350.517 140.5 330.5" stroke="#000000" stroke-miterlimit="8" fill="none" fill-rule="evenodd"/><path d="M160.799 389.344 141.5 369.5" stroke="#000000" stroke-miterlimit="8" fill="none" fill-rule="evenodd"/><path d="M160.876 233.402 228.076 233.402 228.076 272.335 160.876 272.335Z" fill="#FFD966" fill-rule="evenodd"/><path d="M228.076 233.402 295.276 233.402 295.276 272.335 228.076 272.335Z" fill="#FFF2CC" fill-rule="evenodd"/><path d="M295.276 233.402 362.476 233.402 362.476 272.335 295.276 272.335Z" fill="#FFF2CC" fill-rule="evenodd"/><path d="M160.876 272.335 228.076 272.335 228.076 311.268 160.876 311.268Z" fill="#9DC3E6" fill-rule="evenodd"/><path d="M228.076 272.335 295.276 272.335 295.276 311.268 228.076 311.268Z" fill="#FFF2CC" fill-rule="evenodd"/><path d="M295.276 272.335 362.476 272.335 362.476 311.268 295.276 311.268Z" fill="#FFF2CC" fill-rule="evenodd"/><path d="M160.876 311.268 228.076 311.268 228.076 350.202 160.876 350.202Z" fill="#A9D18E" fill-rule="evenodd"/><path d="M228.076 311.268 295.276 311.268 295.276 350.202 228.076 350.202Z" fill="#FFF2CC" fill-rule="evenodd"/><path d="M295.276 311.268 362.476 311.268 362.476 350.202 295.276 350.202Z" fill="#FFF2CC" fill-rule="evenodd"/><path d="M160.876 350.202 228.076 350.202 228.076 389.135 160.876 389.135Z" fill="#C9C9C9" fill-rule="evenodd"/><path d="M228.076 350.202 295.276 350.202 295.276 389.135 228.076 389.135Z" fill="#FFF2CC" fill-rule="evenodd"/><path d="M295.276 350.202 362.476 350.202 362.476 389.135 295.276 389.135Z" fill="#FFF2CC" fill-rule="evenodd"/><path d="M160.876 389.135 362.476 389.135 362.476 467.002 160.876 467.002Z" fill="#FFF2CC" fill-rule="evenodd"/><path d="M228.076 232.735 228.076 389.802" stroke="#000000" stroke-width="1.33333" stroke-linejoin="round" stroke-miterlimit="10" fill="none" fill-rule="evenodd"/><path d="M295.276 232.735 295.276 389.802" stroke="#000000" stroke-width="1.33333" stroke-linejoin="round" stroke-miterlimit="10" fill="none" fill-rule="evenodd"/><path d="M160.21 272.335 363.143 272.335" stroke="#000000" stroke-width="1.33333" stroke-linejoin="round" stroke-miterlimit="10" fill="none" fill-rule="evenodd"/><path d="M160.21 311.268 363.143 311.268" stroke="#000000" stroke-width="1.33333" stroke-linejoin="round" stroke-miterlimit="10" fill="none" fill-rule="evenodd"/><path d="M160.21 350.202 363.143 350.202" stroke="#000000" stroke-width="1.33333" stroke-linejoin="round" stroke-miterlimit="10" fill="none" fill-rule="evenodd"/><path d="M160.21 389.135 363.143 389.135" stroke="#000000" stroke-width="1.33333" stroke-linejoin="round" stroke-miterlimit="10" fill="none" fill-rule="evenodd"/><path d="M160.876 232.735 160.876 467.668" stroke="#000000" stroke-width="1.33333" stroke-linejoin="round" stroke-miterlimit="10" fill="none" fill-rule="evenodd"/><path d="M362.476 232.735 362.476 467.668" stroke="#000000" stroke-width="1.33333" stroke-linejoin="round" stroke-miterlimit="10" fill="none" fill-rule="evenodd"/><path d="M160.21 233.402 363.143 233.402" stroke="#000000" stroke-width="1.33333" stroke-linejoin="round" stroke-miterlimit="10" fill="none" fill-rule="evenodd"/><path d="M160.21 467.002 363.143 467.002" stroke="#000000" stroke-width="1.33333" stroke-linejoin="round" stroke-miterlimit="10" fill="none" fill-rule="evenodd"/><text font-family="Calibri,Calibri_MSFontService,sans-serif" font-weight="400" font-size="19" transform="translate(209.676 434)">1</text><text font-family="Calibri,Calibri_MSFontService,sans-serif" font-weight="400" font-size="19" transform="translate(219.176 434)">KB</text><text font-family="DengXian,DengXian_MSFontService,sans-serif" font-weight="400" font-size="19" transform="translate(239.01 434)">对齐数据</text><text font-family="Microsoft YaHei,Microsoft YaHei_MSFontService,sans-serif" font-weight="400" font-size="21" transform="translate(41.1598 31)">映射</text><text font-family="Microsoft YaHei,Microsoft YaHei_MSFontService,sans-serif" font-weight="400" font-size="21" transform="translate(83.8265 31)">到</text><text font-family="Microsoft YaHei,Microsoft YaHei_MSFontService,sans-serif" font-weight="400" font-size="21" transform="translate(105.16 31)">一个流式处理器簇一</text><text font-family="Microsoft YaHei,Microsoft YaHei_MSFontService,sans-serif" font-weight="400" font-size="21" transform="translate(41.1598 56)">次读取或存储的数据块</text><text font-family="Times New Roman,Times New Roman_MSFontService,sans-serif" font-weight="400" font-size="20" transform="translate(41.1598 81)">(</text><text font-family="Times New Roman,Times New Roman_MSFontService,sans-serif" font-weight="400" font-size="20" transform="translate(47.8265 81)">BF16/S16/U8/S8/S4)</text><path d="M408.443 332.78 456.443 332.78 456.443 361.58 408.443 361.58Z" fill="#FFD966" fill-rule="evenodd"/><path d="M456.443 332.78 504.443 332.78 504.443 361.58 456.443 361.58Z" fill="#9DC3E6" fill-rule="evenodd"/><path d="M504.443 332.78 552.443 332.78 552.443 361.58 504.443 361.58Z" fill="#A9D18E" fill-rule="evenodd"/><path d="M552.443 332.78 600.443 332.78 600.443 361.58 552.443 361.58Z" fill="#C9C9C9" fill-rule="evenodd"/><path d="M456.443 332.113 456.443 362.246" stroke="#000000" stroke-width="1.33333" stroke-linejoin="round" stroke-miterlimit="10" fill="none" fill-rule="evenodd"/><path d="M504.443 332.113 504.443 362.246" stroke="#000000" stroke-width="1.33333" stroke-linejoin="round" stroke-miterlimit="10" fill="none" fill-rule="evenodd"/><path d="M552.443 332.113 552.443 362.246" stroke="#000000" stroke-width="1.33333" stroke-linejoin="round" stroke-miterlimit="10" fill="none" fill-rule="evenodd"/><path d="M408.443 332.113 408.443 362.246" stroke="#000000" stroke-width="1.33333" stroke-linejoin="round" stroke-miterlimit="10" fill="none" fill-rule="evenodd"/><path d="M600.443 332.113 600.443 362.246" stroke="#000000" stroke-width="1.33333" stroke-linejoin="round" stroke-miterlimit="10" fill="none" fill-rule="evenodd"/><path d="M407.776 332.78 601.109 332.78" stroke="#000000" stroke-width="1.33333" stroke-linejoin="round" stroke-miterlimit="10" fill="none" fill-rule="evenodd"/><path d="M407.776 361.58 601.109 361.58" stroke="#000000" stroke-width="1.33333" stroke-linejoin="round" stroke-miterlimit="10" fill="none" fill-rule="evenodd"/><text font-family="Times New Roman,Times New Roman_MSFontService,sans-serif" font-weight="400" font-size="16" transform="translate(409.854 323)">Brust4</text><text font-family="Microsoft YaHei,Microsoft YaHei_MSFontService,sans-serif" font-weight="400" font-size="16" transform="translate(456.521 323)">数据</text><path d="M408.443 274.508 456.443 274.508 456.443 303.307 408.443 303.307Z" fill="#FFD966" fill-rule="evenodd"/><path d="M456.443 274.508 504.443 274.508 504.443 303.307 456.443 303.307Z" fill="#9DC3E6" fill-rule="evenodd"/><path d="M504.443 274.508 552.443 274.508 552.443 303.307 504.443 303.307Z" fill="#A9D18E" fill-rule="evenodd"/><path d="M456.443 273.841 456.443 303.974" stroke="#000000" stroke-width="1.33333" stroke-linejoin="round" stroke-miterlimit="10" fill="none" fill-rule="evenodd"/><path d="M504.443 273.841 504.443 303.974" stroke="#000000" stroke-width="1.33333" stroke-linejoin="round" stroke-miterlimit="10" fill="none" fill-rule="evenodd"/><path d="M408.443 273.841 408.443 303.974" stroke="#000000" stroke-width="1.33333" stroke-linejoin="round" stroke-miterlimit="10" fill="none" fill-rule="evenodd"/><path d="M552.443 273.841 552.443 303.974" stroke="#000000" stroke-width="1.33333" stroke-linejoin="round" stroke-miterlimit="10" fill="none" fill-rule="evenodd"/><path d="M407.776 274.508 553.109 274.508" stroke="#000000" stroke-width="1.33333" stroke-linejoin="round" stroke-miterlimit="10" fill="none" fill-rule="evenodd"/><path d="M407.776 303.307 553.109 303.307" stroke="#000000" stroke-width="1.33333" stroke-linejoin="round" stroke-miterlimit="10" fill="none" fill-rule="evenodd"/><text font-family="Times New Roman,Times New Roman_MSFontService,sans-serif" font-weight="400" font-size="16" transform="translate(409.854 265)">Brust3</text><text font-family="Microsoft YaHei,Microsoft YaHei_MSFontService,sans-serif" font-weight="400" font-size="16" transform="translate(456.521 265)">数据</text><path d="M408.443 216.6 456.443 216.6 456.443 245.4 408.443 245.4Z" fill="#FFD966" fill-rule="evenodd"/><path d="M456.443 216.6 504.443 216.6 504.443 245.4 456.443 245.4Z" fill="#9DC3E6" fill-rule="evenodd"/><path d="M456.443 215.934 456.443 246.067" stroke="#000000" stroke-width="1.33333" stroke-linejoin="round" stroke-miterlimit="10" fill="none" fill-rule="evenodd"/><path d="M408.443 215.934 408.443 246.067" stroke="#000000" stroke-width="1.33333" stroke-linejoin="round" stroke-miterlimit="10" fill="none" fill-rule="evenodd"/><path d="M504.443 215.934 504.443 246.067" stroke="#000000" stroke-width="1.33333" stroke-linejoin="round" stroke-miterlimit="10" fill="none" fill-rule="evenodd"/><path d="M407.776 216.6 505.109 216.6" stroke="#000000" stroke-width="1.33333" stroke-linejoin="round" stroke-miterlimit="10" fill="none" fill-rule="evenodd"/><path d="M407.776 245.4 505.109 245.4" stroke="#000000" stroke-width="1.33333" stroke-linejoin="round" stroke-miterlimit="10" fill="none" fill-rule="evenodd"/><text font-family="Times New Roman,Times New Roman_MSFontService,sans-serif" font-weight="400" font-size="16" transform="translate(409.854 207)">Brust2</text><text font-family="Microsoft YaHei,Microsoft YaHei_MSFontService,sans-serif" font-weight="400" font-size="16" transform="translate(456.521 207)">数据</text><path d="M408.443 158.328 456.443 158.328 456.443 187.128 408.443 187.128Z" fill="#FFD966" fill-rule="evenodd"/><path d="M408.443 157.662 408.443 187.795" stroke="#000000" stroke-width="1.33333" stroke-linejoin="round" stroke-miterlimit="10" fill="none" fill-rule="evenodd"/><path d="M456.443 157.662 456.443 187.795" stroke="#000000" stroke-width="1.33333" stroke-linejoin="round" stroke-miterlimit="10" fill="none" fill-rule="evenodd"/><path d="M407.776 158.328 457.109 158.328" stroke="#000000" stroke-width="1.33333" stroke-linejoin="round" stroke-miterlimit="10" fill="none" fill-rule="evenodd"/><path d="M407.776 187.128 457.109 187.128" stroke="#000000" stroke-width="1.33333" stroke-linejoin="round" stroke-miterlimit="10" fill="none" fill-rule="evenodd"/><text font-family="Times New Roman,Times New Roman_MSFontService,sans-serif" font-weight="400" font-size="16" transform="translate(409.854 149)">Brust1</text><text font-family="Microsoft YaHei,Microsoft YaHei_MSFontService,sans-serif" font-weight="400" font-size="16" transform="translate(456.521 149)">数据</text><path d="M0 21 20.406 0 85 0 64.594 21Z" stroke="#000000" stroke-width="1.33333" stroke-miterlimit="8" fill="#FFD966" fill-rule="evenodd" transform="matrix(-1 0 0 1 225.5 212.5)"/><path d="M161.5 272.5 140.5 251.391 140.5 213.5 161.5 234.609Z" stroke="#000000" stroke-width="1.33333" stroke-miterlimit="8" fill="#BF9000" fill-rule="evenodd"/><path d="M161.5 310.5 140.5 289.392 140.5 251.5 161.5 272.609Z" stroke="#000000" stroke-width="1.33333" stroke-miterlimit="8" fill="#2E75B6" fill-rule="evenodd"/><path d="M161.5 350.5 140.5 329.392 140.5 291.5 161.5 312.609Z" stroke="#000000" stroke-width="1.33333" stroke-miterlimit="8" fill="#548235" fill-rule="evenodd"/><path d="M161.5 389.5 140.5 368.391 140.5 329.5 161.5 350.609Z" stroke="#000000" stroke-width="1.33333" stroke-miterlimit="8" fill="#7C7C7C" fill-rule="evenodd"/><path d="M0 21 20.406 0 85 0 64.594 21Z" stroke="#000000" stroke-width="1.33333" stroke-miterlimit="8" fill="#FFD966" fill-rule="evenodd" transform="matrix(-1 0 0 1 205.5 191.5)"/><path d="M0 21 20.4061 0 86 0 65.5939 21Z" stroke="#000000" stroke-width="1.33333" stroke-miterlimit="8" fill="#FFD966" fill-rule="evenodd" transform="matrix(-1 0 0 1 185.5 171.5)"/><path d="M0 21 20.406 0 85 0 64.594 21Z" stroke="#000000" stroke-width="1.33333" stroke-miterlimit="8" fill="#FFD966" fill-rule="evenodd" transform="matrix(-1 0 0 1 164.5 151.5)"/><path d="M140.5 251.5 119.5 230.391 119.5 191.5 140.5 212.609Z" stroke="#000000" stroke-width="1.33333" stroke-miterlimit="8" fill="#BF9000" fill-rule="evenodd"/><path d="M140.5 289.5 119.5 268.392 119.5 230.5 140.5 251.609Z" stroke="#000000" stroke-width="1.33333" stroke-miterlimit="8" fill="#2E75B6" fill-rule="evenodd"/><path d="M140.5 329.5 120.5 309.397 120.5 269.5 140.5 289.603Z" stroke="#000000" stroke-width="1.33333" stroke-miterlimit="8" fill="#548235" fill-rule="evenodd"/><path d="M140.5 367.5 120.5 347.397 120.5 308.5 140.5 328.603Z" stroke="#000000" stroke-width="1.33333" stroke-miterlimit="8" fill="#7C7C7C" fill-rule="evenodd"/><path d="M119.5 231.5 99.5001 211.397 99.5001 171.5 119.5 191.603Z" stroke="#000000" stroke-width="1.33333" stroke-miterlimit="8" fill="#BF9000" fill-rule="evenodd"/><path d="M119.5 269.5 99.5001 249.397 99.5001 210.5 119.5 230.603Z" stroke="#000000" stroke-width="1.33333" stroke-miterlimit="8" fill="#2E75B6" fill-rule="evenodd"/><path d="M120.5 309.5 99.5001 288.391 99.5001 249.5 120.5 270.609Z" stroke="#000000" stroke-width="1.33333" stroke-miterlimit="8" fill="#548235" fill-rule="evenodd"/><path d="M120.5 347.5 99.5001 326.392 99.5001 288.5 120.5 309.609Z" stroke="#000000" stroke-width="1.33333" stroke-miterlimit="8" fill="#7C7C7C" fill-rule="evenodd"/><path d="M99.5001 211.5 78.5001 190.391 78.5001 151.5 99.5001 172.609Z" stroke="#000000" stroke-width="1.33333" stroke-miterlimit="8" fill="#BF9000" fill-rule="evenodd"/><path d="M99.5001 249.5 78.5001 228.391 78.5001 189.5 99.5001 210.609Z" stroke="#000000" stroke-width="1.33333" stroke-miterlimit="8" fill="#2E75B6" fill-rule="evenodd"/><path d="M99.5001 289.5 79.5001 269.397 79.5001 229.5 99.5001 249.603Z" stroke="#000000" stroke-width="1.33333" stroke-miterlimit="8" fill="#548235" fill-rule="evenodd"/><path d="M99.5001 327.5 79.5001 307.397 79.5001 268.5 99.5001 288.603Z" stroke="#000000" stroke-width="1.33333" stroke-miterlimit="8" fill="#7C7C7C" fill-rule="evenodd"/><path d="M58.5001 117.833 101.744 117.833 101.744 119.167 58.5001 119.167ZM100.411 114.5 108.411 118.5 100.411 122.5Z" fill="#4472C4"/><text font-family="Times New Roman,Times New Roman_MSFontService,sans-serif" font-weight="400" font-size="13" transform="translate(112.404 123)">W</text><path d="M45.1667 131.5 45.1668 154.64 43.8335 154.64 43.8334 131.5ZM48.5001 153.306 44.5002 161.306 40.5001 153.306Z" fill="#4472C4"/><text font-family="Times New Roman,Times New Roman_MSFontService,sans-serif" font-weight="400" font-size="13" transform="translate(37.7223 183)">H</text><path d="M50.2743 118.217 38.0536 107.415 38.9367 106.416 51.1573 117.218ZM36.8451 110.795 33.5001 102.5 42.1432 104.801Z" fill="#4472C4"/><text font-family="Times New Roman,Times New Roman_MSFontService,sans-serif" font-weight="400" font-size="13" transform="translate(7.39843 115)">Ch</text><rect x="0" y="21.2607" width="68.7393" height="155.739" fill="#FFF2CC" transform="matrix(-1 0 0 1 714.5 134.5)"/><path d="M68.7393 21.2607 90 0 90 155.739 68.7393 177Z" fill="#CDC3A4" fill-rule="evenodd" transform="matrix(-1 0 0 1 714.5 134.5)"/><path d="M0 21.2607 21.2607 0 90 0 68.7393 21.2607Z" fill="#FFF5D6" fill-rule="evenodd" transform="matrix(-1 0 0 1 714.5 134.5)"/><path d="M0 21.2607 21.2607 0 90 0 90 155.739 68.7393 177 0 177ZM0 21.2607 68.7393 21.2607 90 0M68.7393 21.2607 68.7393 177" stroke="#000000" stroke-width="1.33333" stroke-miterlimit="8" fill="none" fill-rule="evenodd" transform="matrix(-1 0 0 1 714.5 134.5)"/><path d="M644.387 192.949 624.5 172.5" stroke="#000000" stroke-miterlimit="8" fill="none" fill-rule="evenodd"/><path d="M645.78 232.353 625.5 211.5" stroke="#000000" stroke-miterlimit="8" fill="none" fill-rule="evenodd"/><path d="M644.799 271.344 625.5 251.5" stroke="#000000" stroke-miterlimit="8" fill="none" fill-rule="evenodd"/><rect x="0" y="21.2607" width="68.7393" height="155.739" fill="#FFF2CC" transform="matrix(-1 0 0 1 735.5 154.5)"/><path d="M68.7393 21.2607 90 0 90 155.739 68.7393 177Z" fill="#CDC3A4" fill-rule="evenodd" transform="matrix(-1 0 0 1 735.5 154.5)"/><path d="M0 21.2607 21.2607 0 90 0 68.7393 21.2607Z" fill="#FFF5D6" fill-rule="evenodd" transform="matrix(-1 0 0 1 735.5 154.5)"/><path d="M0 21.2607 21.2607 0 90 0 90 155.739 68.7393 177 0 177ZM0 21.2607 68.7393 21.2607 90 0M68.7393 21.2607 68.7393 177" stroke="#000000" stroke-width="1.33333" stroke-miterlimit="8" fill="none" fill-rule="evenodd" transform="matrix(-1 0 0 1 735.5 154.5)"/><path d="M665.387 213.949 645.5 193.5" stroke="#000000" stroke-miterlimit="8" fill="none" fill-rule="evenodd"/><path d="M665.78 252.353 645.5 231.5" stroke="#000000" stroke-miterlimit="8" fill="none" fill-rule="evenodd"/><path d="M665.799 291.344 646.5 271.5" stroke="#000000" stroke-miterlimit="8" fill="none" fill-rule="evenodd"/><rect x="0" y="21.2607" width="68.7393" height="155.739" fill="#FFF2CC" transform="matrix(-1 0 0 1 756.5 175.5)"/><path d="M68.7393 21.2607 90 0 90 155.739 68.7393 177Z" fill="#CDC3A4" fill-rule="evenodd" transform="matrix(-1 0 0 1 756.5 175.5)"/><path d="M0 21.2607 21.2607 0 90 0 68.7393 21.2607Z" fill="#FFF5D6" fill-rule="evenodd" transform="matrix(-1 0 0 1 756.5 175.5)"/><path d="M0 21.2607 21.2607 0 90 0 90 155.739 68.7393 177 0 177ZM0 21.2607 68.7393 21.2607 90 0M68.7393 21.2607 68.7393 177" stroke="#000000" stroke-width="1.33333" stroke-miterlimit="8" fill="none" fill-rule="evenodd" transform="matrix(-1 0 0 1 756.5 175.5)"/><path d="M686.387 234.949 666.5 214.5" stroke="#000000" stroke-miterlimit="8" fill="none" fill-rule="evenodd"/><path d="M686.78 273.353 666.5 252.5" stroke="#000000" stroke-miterlimit="8" fill="none" fill-rule="evenodd"/><path d="M686.799 312.344 667.5 292.5" stroke="#000000" stroke-miterlimit="8" fill="none" fill-rule="evenodd"/><rect x="0" y="21.4969" width="69.5031" height="155.503" fill="#FFF2CC" transform="matrix(-1 0 0 1 778.5 196.5)"/><path d="M69.5031 21.4969 91 0 91 155.503 69.5031 177Z" fill="#CDC3A4" fill-rule="evenodd" transform="matrix(-1 0 0 1 778.5 196.5)"/><path d="M0 21.4969 21.4969 0 91 0 69.5031 21.4969Z" fill="#FFF5D6" fill-rule="evenodd" transform="matrix(-1 0 0 1 778.5 196.5)"/><path d="M0 21.4969 21.4969 0 91 0 91 155.503 69.5031 177 0 177ZM0 21.4969 69.5031 21.4969 91 0M69.5031 21.4969 69.5031 177" stroke="#000000" stroke-width="1.33333" stroke-miterlimit="8" fill="none" fill-rule="evenodd" transform="matrix(-1 0 0 1 778.5 196.5)"/><path d="M707.387 254.949 687.5 234.5" stroke="#000000" stroke-miterlimit="8" fill="none" fill-rule="evenodd"/><path d="M708.78 294.353 688.5 273.5" stroke="#000000" stroke-miterlimit="8" fill="none" fill-rule="evenodd"/><path d="M707.799 333.344 688.5 313.5" stroke="#000000" stroke-miterlimit="8" fill="none" fill-rule="evenodd"/><path d="M709.135 216.6 776.335 216.6 776.335 255.534 709.135 255.534Z" fill="#FFD966" fill-rule="evenodd"/><path d="M709.135 255.534 776.335 255.534 776.335 294.467 709.135 294.467Z" fill="#9DC3E6" fill-rule="evenodd"/><path d="M709.135 294.467 776.335 294.467 776.335 333.4 709.135 333.4Z" fill="#A9D18E" fill-rule="evenodd"/><path d="M709.135 333.4 776.335 333.4 776.335 372.334 709.135 372.334Z" fill="#C9C9C9" fill-rule="evenodd"/><path d="M708.468 255.534 777.002 255.534" stroke="#000000" stroke-width="1.33333" stroke-linejoin="round" stroke-miterlimit="10" fill="none" fill-rule="evenodd"/><path d="M708.468 294.467 777.002 294.467" stroke="#000000" stroke-width="1.33333" stroke-linejoin="round" stroke-miterlimit="10" fill="none" fill-rule="evenodd"/><path d="M708.468 333.4 777.002 333.4" stroke="#000000" stroke-width="1.33333" stroke-linejoin="round" stroke-miterlimit="10" fill="none" fill-rule="evenodd"/><path d="M709.135 215.934 709.135 373" stroke="#000000" stroke-width="1.33333" stroke-linejoin="round" stroke-miterlimit="10" fill="none" fill-rule="evenodd"/><path d="M776.335 215.934 776.335 373" stroke="#000000" stroke-width="1.33333" stroke-linejoin="round" stroke-miterlimit="10" fill="none" fill-rule="evenodd"/><path d="M708.468 216.6 777.002 216.6" stroke="#000000" stroke-width="1.33333" stroke-linejoin="round" stroke-miterlimit="10" fill="none" fill-rule="evenodd"/><path d="M708.468 372.334 777.002 372.334" stroke="#000000" stroke-width="1.33333" stroke-linejoin="round" stroke-miterlimit="10" fill="none" fill-rule="evenodd"/><path d="M0 20 19.4344 0 88 0 68.5656 20Z" stroke="#000000" stroke-width="1.33333" stroke-miterlimit="8" fill="#FFD966" fill-rule="evenodd" transform="matrix(-1 0 0 1 776.5 196.5)"/><path d="M709.5 256.5 688.5 235.391 688.5 196.5 709.5 217.609Z" stroke="#000000" stroke-width="1.33333" stroke-miterlimit="8" fill="#BF9000" fill-rule="evenodd"/><path d="M709.5 294.5 688.5 273.391 688.5 234.5 709.5 255.609Z" stroke="#000000" stroke-width="1.33333" stroke-miterlimit="8" fill="#2E75B6" fill-rule="evenodd"/><path d="M709.5 334.5 688.5 313.391 688.5 274.5 709.5 295.609Z" stroke="#000000" stroke-width="1.33333" stroke-miterlimit="8" fill="#548235" fill-rule="evenodd"/><path d="M709.5 372.5 688.5 351.392 688.5 313.5 709.5 334.609Z" stroke="#000000" stroke-width="1.33333" stroke-miterlimit="8" fill="#7C7C7C" fill-rule="evenodd"/><path d="M786.5 196.5C788.709 196.5 790.5 196.799 790.5 197.167L790.5 225.333C790.5 225.702 792.291 226 794.5 226 792.291 226 790.5 226.299 790.5 226.667L790.5 254.833C790.5 255.202 788.709 255.5 786.5 255.5" stroke="#000000" stroke-miterlimit="8" fill="none" fill-rule="evenodd"/><text font-family="Microsoft YaHei,Microsoft YaHei_MSFontService,sans-serif" font-weight="400" font-size="12" transform="translate(802.875 229)">数据块</text><text font-family="Times New Roman,Times New Roman_MSFontService,sans-serif" font-weight="400" font-size="12" transform="translate(838.875 229)">0</text><text font-family="Microsoft YaHei,Microsoft YaHei_MSFontService,sans-serif" font-weight="400" font-size="12" transform="translate(847.875 229)">数据子块</text><text font-family="Times New Roman,Times New Roman_MSFontService,sans-serif" font-weight="400" font-size="12" transform="translate(895.875 229)">0</text><path d="M786.5 256.5C788.709 256.5 790.5 256.799 790.5 257.167L790.5 274.833C790.5 275.202 792.291 275.5 794.5 275.5 792.291 275.5 790.5 275.799 790.5 276.167L790.5 293.833C790.5 294.202 788.709 294.5 786.5 294.5" stroke="#000000" stroke-miterlimit="8" fill="none" fill-rule="evenodd"/><path d="M786.5 295.5C788.709 295.5 790.5 295.799 790.5 296.167L790.5 313.833C790.5 314.202 792.291 314.5 794.5 314.5 792.291 314.5 790.5 314.799 790.5 315.167L790.5 332.833C790.5 333.202 788.709 333.5 786.5 333.5" stroke="#000000" stroke-miterlimit="8" fill="none" fill-rule="evenodd"/><path d="M786.5 335.5C788.709 335.5 790.5 335.799 790.5 336.167L790.5 353.333C790.5 353.702 792.291 354 794.5 354 792.291 354 790.5 354.299 790.5 354.667L790.5 371.833C790.5 372.202 788.709 372.5 786.5 372.5" stroke="#000000" stroke-miterlimit="8" fill="none" fill-rule="evenodd"/><text font-family="Microsoft YaHei,Microsoft YaHei_MSFontService,sans-serif" font-weight="400" font-size="12" transform="translate(802.875 280)">数据块</text><text font-family="Times New Roman,Times New Roman_MSFontService,sans-serif" font-weight="400" font-size="12" transform="translate(838.875 280)">1</text><text font-family="Microsoft YaHei,Microsoft YaHei_MSFontService,sans-serif" font-weight="400" font-size="12" transform="translate(847.875 280)">数据子块</text><text font-family="Times New Roman,Times New Roman_MSFontService,sans-serif" font-weight="400" font-size="12" transform="translate(895.875 280)">0</text><text font-family="Microsoft YaHei,Microsoft YaHei_MSFontService,sans-serif" font-weight="400" font-size="12" transform="translate(802.875 318)">数据块</text><text font-family="Times New Roman,Times New Roman_MSFontService,sans-serif" font-weight="400" font-size="12" transform="translate(838.875 318)">2</text><text font-family="Microsoft YaHei,Microsoft YaHei_MSFontService,sans-serif" font-weight="400" font-size="12" transform="translate(847.875 318)">数据子块</text><text font-family="Times New Roman,Times New Roman_MSFontService,sans-serif" font-weight="400" font-size="12" transform="translate(895.875 318)">0</text><text font-family="Microsoft YaHei,Microsoft YaHei_MSFontService,sans-serif" font-weight="400" font-size="12" transform="translate(802.875 357)">数据块</text><text font-family="Times New Roman,Times New Roman_MSFontService,sans-serif" font-weight="400" font-size="12" transform="translate(838.875 357)">2</text><text font-family="Microsoft YaHei,Microsoft YaHei_MSFontService,sans-serif" font-weight="400" font-size="12" transform="translate(847.875 357)">数据子块</text><text font-family="Times New Roman,Times New Roman_MSFontService,sans-serif" font-weight="400" font-size="12" transform="translate(895.875 357)">0</text><path d="M764.5 175.5C765.881 175.5 767 175.687 767 175.917L767 186.583C767 186.814 768.119 187 769.5 187 768.119 187 767 187.187 767 187.417L767 198.083C767 198.314 765.881 198.5 764.5 198.5" stroke="#000000" stroke-miterlimit="8" fill="none" fill-rule="evenodd"/><text font-family="Microsoft YaHei,Microsoft YaHei_MSFontService,sans-serif" font-weight="400" font-size="12" transform="translate(778.181 190)">数据块</text><text font-family="Times New Roman,Times New Roman_MSFontService,sans-serif" font-weight="400" font-size="12" transform="translate(814.181 190)">0</text><text font-family="Microsoft YaHei,Microsoft YaHei_MSFontService,sans-serif" font-weight="400" font-size="12" transform="translate(823.181 190)">数据子块</text><text font-family="Times New Roman,Times New Roman_MSFontService,sans-serif" font-weight="400" font-size="12" transform="translate(871.181 190)">1</text><path d="M743.5 153.5C744.881 153.5 746 153.687 746 153.917L746 164.583C746 164.814 747.119 165 748.5 165 747.119 165 746 165.187 746 165.417L746 176.083C746 176.314 744.881 176.5 743.5 176.5" stroke="#000000" stroke-miterlimit="8" fill="none" fill-rule="evenodd"/><text font-family="Microsoft YaHei,Microsoft YaHei_MSFontService,sans-serif" font-weight="400" font-size="12" transform="translate(757.167 168)">数据块</text><text font-family="Times New Roman,Times New Roman_MSFontService,sans-serif" font-weight="400" font-size="12" transform="translate(793.167 168)">0</text><text font-family="Microsoft YaHei,Microsoft YaHei_MSFontService,sans-serif" font-weight="400" font-size="12" transform="translate(802.167 168)">数据子块</text><text font-family="Times New Roman,Times New Roman_MSFontService,sans-serif" font-weight="400" font-size="12" transform="translate(850.167 168)">2</text><path d="M723.5 132.5C724.605 132.5 725.5 132.649 725.5 132.833L725.5 143.667C725.5 143.851 726.396 144 727.5 144 726.396 144 725.5 144.149 725.5 144.333L725.5 155.167C725.5 155.351 724.605 155.5 723.5 155.5" stroke="#000000" stroke-miterlimit="8" fill="none" fill-rule="evenodd"/><text font-family="Microsoft YaHei,Microsoft YaHei_MSFontService,sans-serif" font-weight="400" font-size="12" transform="translate(736.929 147)">数据块</text><text font-family="Times New Roman,Times New Roman_MSFontService,sans-serif" font-weight="400" font-size="12" transform="translate(772.929 147)">0</text><text font-family="Microsoft YaHei,Microsoft YaHei_MSFontService,sans-serif" font-weight="400" font-size="12" transform="translate(781.929 147)">数据子块</text><text font-family="Times New Roman,Times New Roman_MSFontService,sans-serif" font-weight="400" font-size="12" transform="translate(829.929 147)">3</text><path d="M777.842 217.741 694 133" stroke="#000000" stroke-width="2.33333" stroke-miterlimit="8" fill="none" fill-rule="evenodd"/><path d="M708.842 217.741 625 133" stroke="#000000" stroke-width="2.33333" stroke-miterlimit="8" fill="none" fill-rule="evenodd"/><path d="M707.842 255.741 624 171" stroke="#000000" stroke-width="2.33333" stroke-miterlimit="8" fill="none" fill-rule="evenodd"/><path d="M707.842 294.741 624 210" stroke="#000000" stroke-width="2.33333" stroke-miterlimit="8" fill="none" fill-rule="evenodd"/><path d="M708.842 333.741 625 249" stroke="#000000" stroke-width="2.33333" stroke-miterlimit="8" fill="none" fill-rule="evenodd"/><path d="M708.842 373.741 625 289" stroke="#000000" stroke-width="2.33333" stroke-miterlimit="8" fill="none" fill-rule="evenodd"/><path d="M0 0 0.000104987 156.793" stroke="#000000" stroke-width="2.33333" stroke-miterlimit="8" fill="none" fill-rule="evenodd" transform="matrix(1 0 0 -1 709 373.793)"/><path d="M0 0 0.000104987 156.793" stroke="#000000" stroke-width="2.33333" stroke-miterlimit="8" fill="none" fill-rule="evenodd" transform="matrix(1 0 0 -1 625 288.793)"/><path d="M709 372 777.919 372" stroke="#000000" stroke-width="2.33333" stroke-miterlimit="8" fill="none" fill-rule="evenodd"/><path d="M708 334 776.919 334" stroke="#000000" stroke-width="2.33333" stroke-miterlimit="8" fill="none" fill-rule="evenodd"/><path d="M707 294 775.919 294" stroke="#000000" stroke-width="2.33333" stroke-miterlimit="8" fill="none" fill-rule="evenodd"/><path d="M709 256 777.919 256" stroke="#000000" stroke-width="2.33333" stroke-miterlimit="8" fill="none" fill-rule="evenodd"/><path d="M708 217 776.919 217" stroke="#000000" stroke-width="2.33333" stroke-miterlimit="8" fill="none" fill-rule="evenodd"/><path d="M627 133 695.919 133" stroke="#000000" stroke-width="2.33333" stroke-miterlimit="8" fill="none" fill-rule="evenodd"/><text font-family="Microsoft YaHei,Microsoft YaHei_MSFontService,sans-serif" font-weight="400" font-size="21" transform="translate(613.649 31)">映射到一个线程束一次读取</text><text font-family="Microsoft YaHei,Microsoft YaHei_MSFontService,sans-serif" font-weight="400" font-size="21" transform="translate(613.649 56)">或存储的数据</text><text font-family="Microsoft YaHei,Microsoft YaHei_MSFontService,sans-serif" font-weight="400" font-size="21" transform="translate(741.649 56)">子</text><text font-family="Microsoft YaHei,Microsoft YaHei_MSFontService,sans-serif" font-weight="400" font-size="21" transform="translate(762.983 56)">块</text><text font-family="Times New Roman,Times New Roman_MSFontService,sans-serif" font-weight="400" font-size="20" transform="translate(613.649 81)">(</text><text font-family="Times New Roman,Times New Roman_MSFontService,sans-serif" font-weight="400" font-size="20" transform="translate(620.316 81)">BF16/S16/U8/S8/S4)</text></g></svg>